<svg width="1000" height="20" viewBox="0 0 1000 20" fill="none" xmlns="http://www.w3.org/2000/svg">
<path d="M201.05 8.72003C199.473 9.60447 197.965 10.6074 196.54 11.72C192.62 15.26 185.88 15.13 181.37 12.17C180.37 11.49 179.28 10.82 178.27 10.11C177.26 9.40003 176.78 9.65003 176.11 10.47C172.48 14.87 164.95 16.28 159.7 13.47C158.808 12.8647 158.026 12.1103 157.39 11.24C156.946 10.6695 156.539 10.0717 156.17 9.45003C149.11 15.67 142.1 17.45 134.94 9.62003C132.2 11.75 130.27 15.12 125.94 14.57C122.17 14.09 119.25 12.06 116.29 9.57003C113.86 12.9 110.66 14.96 106.06 14.7C101.46 14.44 98.86 11.7 96.31 8.06003C94.12 12.67 90.57 14.9 85.5 15.59C79.85 16.36 76.72 13.83 74.63 9.59003C66.27 16.82 59.31 18.28 52.41 11C48.83 14.29 44.95 17.29 39.41 17.18C33.87 17.07 29.89 14.67 27.59 9.87003C25.82 11.2 24.28 12.33 22.78 13.5C15.78 18.96 8.03 16.92 2.56 12.59C1.66 11.88 1.33 10.53 0.959996 9.41003C0.849996 9.07003 1.41 8.26003 1.81 8.17003C2.43116 8.12699 3.04933 8.28855 3.57 8.63003C3.92271 8.90033 4.18157 9.27462 4.31 9.70003C5.46 12.58 8.22 13.79 11.14 14.7C13.58 15.44 15.88 14.41 17.84 13.27C20.5555 11.6154 23.1825 9.81964 25.71 7.89003C27.4 6.63003 28.16 6.49003 29.63 7.96003C30.4383 8.83256 31.1429 9.79562 31.73 10.83C34.45 15.12 38 16.15 43 13.88C45.9462 12.6731 48.4738 10.6287 50.27 8.00003C51.27 6.38003 52.11 6.31003 53.54 7.73003C54.2873 8.49917 54.9572 9.33987 55.54 10.24C56.2029 11.2805 57.1616 12.0991 58.293 12.5909C59.4244 13.0827 60.677 13.2251 61.89 13C65.96 12.38 69.56 10.88 71.66 7.47003C71.9597 6.91402 72.4317 6.4702 73.0051 6.20516C73.5784 5.94011 74.2223 5.86814 74.84 6.00003C75.7571 6.34028 76.5394 6.96825 77.07 7.79003C77.6964 8.77749 78.2673 9.79907 78.78 10.85C80.24 13.28 81.17 13.69 84.19 13.27C86.6486 13.0546 88.9365 11.9232 90.6 10.1C91.6791 8.91406 92.8677 7.8326 94.15 6.87003C96.15 5.27003 98.04 5.52003 99.61 7.52003C100.39 8.52003 101.07 9.57003 101.93 10.52C104.07 12.85 108.69 12.82 110.93 10.52C111.86 9.52003 112.75 8.52003 113.76 7.67003C115.76 5.86003 117.02 6.08003 118.98 7.96003C120.574 9.4372 122.329 10.7319 124.21 11.82C124.919 12.2201 125.739 12.3779 126.546 12.2696C127.352 12.1613 128.102 11.7928 128.68 11.22C130.27 9.91003 131.78 8.50003 133.42 7.22003C134.095 6.58872 134.968 6.21064 135.89 6.15003C136.336 6.28247 136.747 6.51277 137.093 6.82415C137.439 7.13553 137.711 7.52016 137.89 7.95003C140.11 14.51 146.5 13.39 150.83 10.57C152.223 9.51887 153.558 8.39393 154.83 7.20003C156.19 6.10003 157.1 6.20003 158.11 7.63003C158.473 8.06072 158.807 8.51505 159.11 8.99003C160.55 11.65 162.79 12.77 166.17 12.4C169.79 12.01 172.7 10.81 174.45 7.87003C176.09 5.11003 177.27 5.08003 179.66 7.41003C181.305 8.95566 183.093 10.3419 185 11.55C185.929 12.1217 186.996 12.4294 188.087 12.4399C189.177 12.4505 190.25 12.1636 191.19 11.61C194.229 9.90614 197.17 8.0332 200 6.00003C200.248 5.79299 200.536 5.64111 200.847 5.55449C201.158 5.46788 201.484 5.44853 201.803 5.49774C202.122 5.54695 202.426 5.66358 202.697 5.83986C202.967 6.01614 203.196 6.24802 203.37 6.52003C204.222 7.82342 205.171 9.0603 206.21 10.22C209.16 13.07 211.63 12.97 216.36 10.92C218.241 9.98901 220.035 8.89128 221.72 7.64003C223.72 6.34003 225.78 6.30003 227.37 8.44003C230.37 12.51 235.99 12.77 240.7 9.39003C242.118 8.33795 243.601 7.37605 245.14 6.51003C247.01 5.51003 248.33 6.01003 249.06 7.83003C249.795 9.63223 251.204 11.0764 252.988 11.8553C254.771 12.6341 256.789 12.686 258.61 12C260.97 11.18 263.14 9.93003 265.43 8.92003C266.665 8.28956 267.971 7.80946 269.32 7.49003C269.756 7.44445 270.197 7.49515 270.612 7.63856C271.027 7.78197 271.405 8.01459 271.72 8.32003C275.31 13.94 282.79 13.84 288.29 9.85003C288.44 9.73003 288.59 9.60003 288.75 9.49003C292.39 6.99003 292.75 7.02003 295.75 10.01C299.67 14.01 305.03 14.01 310.15 10.01C311.02 9.34003 311.87 8.65003 312.8 8.01003C314.5 6.91003 315.47 7.07003 316.73 8.60003C317.28 9.28003 317.73 10.02 318.26 10.74C320.9 14.6 323.58 15.19 327.78 12.57C329.164 11.6555 330.402 10.5361 331.45 9.25003C331.588 9.052 331.766 8.88457 331.972 8.75817C332.178 8.63178 332.408 8.54912 332.647 8.51535C332.886 8.48158 333.13 8.49742 333.362 8.56188C333.595 8.62634 333.812 8.73804 334 8.89003C334.309 9.16686 334.536 9.52266 334.658 9.91912C334.779 10.3156 334.79 10.7377 334.69 11.14C334 12.0602 333.12 12.8208 332.11 13.37C331.11 14.05 329.91 14.57 328.82 15.17C326.659 16.415 324.108 16.7977 321.677 16.2414C319.246 15.6851 317.114 14.2309 315.71 12.17C314.34 10.02 314.34 10.02 312.32 11.74C306.63 16.59 300.09 16.74 294.24 11.98C293.17 11.12 292.42 10.89 291.16 11.83C289.017 13.471 286.5 14.5554 283.836 14.9864C281.171 15.4174 278.441 15.1816 275.89 14.3C273.941 13.5481 272.155 12.4277 270.63 11C270.294 10.6081 269.823 10.3559 269.311 10.293C268.798 10.2301 268.281 10.361 267.86 10.66C265.86 11.74 263.71 12.72 261.6 13.66C256.08 16.19 250.21 13.9 246.99 10.11C246.08 9.04003 245.54 8.84003 244.49 9.74003C244.01 10.16 243.42 10.49 242.97 10.93C238.41 15.44 230.43 14.56 225.73 10.65C223.8 9.03003 223.29 8.89003 221.52 10.72C218.79 13.57 215.2 13.95 211.41 14.16C209.818 14.2336 208.23 13.9492 206.762 13.3279C205.295 12.7067 203.985 11.7642 202.93 10.57C202.31 9.95003 201.7 9.32003 201.05 8.65003" fill="black"/>
<path d="M533.74 8.72C532.166 9.6092 530.659 10.6118 529.23 11.72C525.32 15.26 518.58 15.13 514.07 12.17C513.07 11.49 511.97 10.82 510.96 10.11C509.95 9.4 509.48 9.65 508.81 10.47C505.18 14.87 497.65 16.28 492.4 13.47C491.508 12.8646 490.726 12.1103 490.09 11.24C489.643 10.6719 489.235 10.0739 488.87 9.45C481.81 15.67 474.8 17.45 467.64 9.62C464.89 11.75 462.97 15.12 458.64 14.57C454.86 14.09 451.95 12.06 448.98 9.57C446.55 12.9 443.35 14.96 438.75 14.7C434.15 14.44 431.55 11.7 429.01 8.06C426.82 12.67 423.27 14.9 418.2 15.59C412.55 16.36 409.42 13.83 407.33 9.59C399 16.82 392 18.28 385.11 11C381.53 14.29 377.65 17.29 372.11 17.18C366.57 17.07 362.6 14.67 360.3 9.87C358.53 11.2 356.98 12.33 355.48 13.5C348.48 18.96 340.74 16.92 335.26 12.59C334.37 11.88 334.04 10.53 333.67 9.41C333.55 9.07 334.12 8.26 334.51 8.17C335.131 8.12546 335.75 8.28715 336.27 8.63C336.611 8.89211 336.866 9.25107 337 9.66C338.14 12.54 340.91 13.75 343.82 14.66C346.27 15.4 348.57 14.37 350.52 13.23C353.239 11.5755 355.869 9.77967 358.4 7.85C360.09 6.59 360.84 6.45 362.31 7.92C363.121 8.79228 363.829 9.75533 364.42 10.79C367.12 15.15 370.65 16.18 375.66 13.91C378.636 12.7067 381.189 10.6505 383 8C384 6.38 384.84 6.31 386.27 7.73C387.017 8.49914 387.687 9.33984 388.27 10.24C388.931 11.2751 389.885 12.0902 391.01 12.5817C392.135 13.0731 393.382 13.2188 394.59 13C398.66 12.38 402.26 10.88 404.36 7.47C404.66 6.91399 405.132 6.47017 405.705 6.20513C406.278 5.94008 406.922 5.86811 407.54 6C408.456 6.33828 409.235 6.96695 409.76 7.79C410.39 8.77731 410.964 9.79889 411.48 10.85C412.94 13.28 413.87 13.69 416.89 13.27C419.345 13.0522 421.629 11.9209 423.29 10.1C424.375 8.91628 425.567 7.83504 426.85 6.87C428.85 5.27 430.73 5.52 432.31 7.52C433.09 8.52 433.77 9.57 434.62 10.52C436.77 12.85 441.39 12.82 443.62 10.52C444.55 9.52 445.44 8.52 446.44 7.67C448.5 5.86 449.7 6.08 451.67 7.96C453.262 9.43945 455.017 10.7343 456.9 11.82C457.609 12.22 458.429 12.3779 459.236 12.2696C460.042 12.1613 460.792 11.7928 461.37 11.22C462.96 9.91 464.46 8.5 466.11 7.22C466.782 6.5908 467.651 6.21286 468.57 6.15C469.017 6.28114 469.429 6.51096 469.775 6.82251C470.121 7.13405 470.393 7.51936 470.57 7.95C472.79 14.51 479.19 13.39 483.52 10.57C484.913 9.51884 486.248 8.3939 487.52 7.2C488.87 6.1 489.79 6.2 490.79 7.63C491.153 8.06087 491.487 8.51519 491.79 8.99C493.23 11.65 495.46 12.77 498.85 12.4C502.47 12.01 505.38 10.81 507.13 7.87C508.77 5.11 509.95 5.08 512.34 7.41C513.983 8.95799 515.771 10.3444 517.68 11.55C518.609 12.1217 519.676 12.4293 520.767 12.4399C521.857 12.4505 522.93 12.1636 523.87 11.61C526.904 9.90804 529.839 8.03502 532.66 6C532.906 5.79867 533.192 5.65109 533.499 5.56674C533.805 5.48239 534.126 5.46314 534.441 5.51023C534.755 5.55732 535.057 5.66971 535.325 5.84017C535.594 6.01063 535.824 6.23539 536 6.5C536.852 7.80339 537.801 9.04027 538.84 10.2C541.78 13.05 544.26 12.95 548.98 10.9C550.862 9.97127 552.656 8.87342 554.34 7.62C556.34 6.32 558.41 6.28 560 8.42C563 12.49 568.62 12.75 573.33 9.37C574.747 8.31568 576.23 7.35369 577.77 6.49C579.63 5.49 580.96 5.99 581.69 7.81C582.419 9.63439 583.838 11.0977 585.639 11.8822C587.44 12.6666 589.478 12.709 591.31 12C593.67 11.18 595.84 9.93 598.12 8.92C599.353 8.29253 600.655 7.81255 602 7.49C602.436 7.44442 602.878 7.49512 603.292 7.63853C603.707 7.78194 604.085 8.01456 604.4 8.32C608 13.94 615.48 13.84 621 9.85C621.16 9.73 621.31 9.6 621.47 9.49C625.1 6.99 625.47 7.02 628.47 10.01C632.38 14.01 637.75 14.01 642.86 10.01C643.74 9.34 644.59 8.65 645.52 8.01C647.21 6.91 648.19 7.07 649.44 8.6C650 9.28 650.44 10.02 650.97 10.74C653.61 14.6 656.29 15.19 660.5 12.57C661.884 11.6555 663.122 10.536 664.17 9.25C664.303 9.04211 664.478 8.86443 664.683 8.72846C664.889 8.5925 665.121 8.50129 665.364 8.46075C665.608 8.4202 665.857 8.43123 666.095 8.49312C666.334 8.55501 666.557 8.66638 666.75 8.82C667.057 9.09814 667.283 9.45403 667.405 9.85006C667.526 10.2461 667.538 10.6676 667.44 11.07C666.747 11.9912 665.864 12.7519 664.85 13.3C663.85 13.98 662.66 14.5 661.56 15.1C659.401 16.3444 656.851 16.7267 654.421 16.1704C651.992 15.6141 649.863 14.1601 648.46 12.1C647.06 10 647.06 10 645 11.72C639.31 16.57 632.77 16.72 626.92 11.96C625.84 11.1 625.1 10.87 623.84 11.81C621.695 13.451 619.177 14.5354 616.511 14.9664C613.844 15.3973 611.113 15.1615 608.56 14.28C606.622 13.5272 604.844 12.4143 603.32 11C602.984 10.6081 602.513 10.3559 602.001 10.293C601.488 10.2301 600.971 10.361 600.55 10.66C598.55 11.74 596.41 12.72 594.3 13.66C588.78 16.19 582.9 13.9 579.68 10.11C578.78 9.04 578.23 8.84 577.19 9.74C576.7 10.16 576.11 10.49 575.66 10.93C571.1 15.44 563.13 14.56 558.43 10.65C556.5 9.1 556 9 554.22 10.79C551.48 13.64 547.89 14.02 544.11 14.23C542.518 14.305 540.929 14.0213 539.462 13.3999C537.994 12.7785 536.684 11.8353 535.63 10.64L533.74 8.72Z" fill="black"/>
<path d="M865.23 8.72003C863.654 9.60685 862.147 10.6096 860.72 11.72C856.8 15.26 850.06 15.13 845.55 12.17C844.55 11.49 843.46 10.82 842.45 10.11C841.44 9.40003 840.96 9.65003 840.29 10.47C836.66 14.87 829.14 16.28 823.88 13.47C822.992 12.8593 822.212 12.1058 821.57 11.24C821.126 10.6695 820.719 10.0717 820.35 9.45003C813.29 15.67 806.28 17.45 799.12 9.62003C796.38 11.75 794.45 15.12 790.12 14.57C786.35 14.09 783.43 12.06 780.47 9.57003C778.04 12.9 774.84 14.96 770.24 14.7C765.64 14.44 763.04 11.7 760.5 8.06003C758.31 12.67 754.75 14.9 749.68 15.59C744.03 16.36 740.9 13.83 738.82 9.59003C730.44 16.76 723.49 18.22 716.59 10.9C713 14.19 709.13 17.19 703.59 17.08C698.05 16.97 694.07 14.57 691.77 9.77003C690 11.1 688.46 12.23 686.96 13.4C679.96 18.86 672.21 16.82 666.74 12.49C665.84 11.78 665.51 10.43 665.14 9.31003C665.03 8.97003 665.59 8.16003 665.99 8.07003C666.611 8.02699 667.229 8.18855 667.75 8.53003C668.106 8.7974 668.365 9.17279 668.49 9.60003C669.64 12.48 672.4 13.69 675.32 14.6C677.76 15.34 680.06 14.31 682.02 13.17C684.737 11.5178 687.364 9.72193 689.89 7.79003C691.59 6.53003 692.34 6.39003 693.81 7.86003C694.618 8.73486 695.326 9.69753 695.92 10.73C698.61 15.09 702.15 16.12 707.15 13.85C710.105 12.6588 712.644 10.6242 714.45 8.00003C715.45 6.38003 716.3 6.31003 717.73 7.73003C718.474 8.50175 719.144 9.34216 719.73 10.24C720.39 11.2807 721.347 12.0997 722.477 12.5916C723.607 13.0835 724.858 13.2258 726.07 13C730.14 12.38 733.75 10.88 735.84 7.47003C736.139 6.91787 736.607 6.47668 737.177 6.21189C737.746 5.9471 738.385 5.87281 739 6.00003C739.917 6.34028 740.699 6.96825 741.23 7.79003C741.877 8.77608 742.468 9.79769 743 10.85C744.46 13.28 745.39 13.69 748.41 13.27C750.869 13.0546 753.156 11.9232 754.82 10.1C755.899 8.91406 757.088 7.8326 758.37 6.87003C760.37 5.27003 762.26 5.52003 763.83 7.52003C764.61 8.52003 765.29 9.57003 766.15 10.52C768.29 12.85 772.91 12.82 775.15 10.52C776.08 9.52003 776.97 8.52003 777.98 7.67003C780.03 5.86003 781.24 6.08003 783.2 7.96003C784.794 9.4372 786.549 10.7319 788.43 11.82C789.14 12.2209 789.962 12.3791 790.771 12.2709C791.579 12.1626 792.33 11.7937 792.91 11.22C794.5 9.91003 796 8.50003 797.65 7.22003C798.322 6.59083 799.191 6.2129 800.11 6.15003C800.541 6.30176 800.934 6.546 801.26 6.8656C801.587 7.1852 801.839 7.57241 802 8.00003C804.22 14.56 810.61 13.44 815 10.62C816.391 9.56653 817.726 8.44169 819 7.25003C820.36 6.15003 821.28 6.25003 822.28 7.68003C822.643 8.11072 822.977 8.56505 823.28 9.04003C824.72 11.7 826.96 12.82 830.35 12.45C833.96 12.06 836.87 10.86 838.62 7.92003C840.26 5.16003 841.44 5.13003 843.83 7.46003C845.475 9.00566 847.263 10.3919 849.17 11.6C850.099 12.1717 851.166 12.4794 852.257 12.4899C853.347 12.5005 854.42 12.2136 855.36 11.66C858.394 9.93928 861.328 8.04964 864.15 6.00003C864.398 5.79299 864.686 5.64111 864.997 5.55449C865.308 5.46788 865.634 5.44853 865.953 5.49774C866.272 5.54695 866.576 5.66358 866.847 5.83986C867.117 6.01614 867.346 6.24802 867.52 6.52003C868.378 7.8188 869.327 9.05523 870.36 10.22C873.31 13.07 875.78 12.97 880.51 10.92C882.392 9.9913 884.186 8.89345 885.87 7.64003C887.87 6.34003 889.94 6.30003 891.52 8.44003C894.52 12.51 900.14 12.77 904.86 9.39003C906.275 8.338 907.754 7.3761 909.29 6.51003C911.16 5.51003 912.49 6.01003 913.21 7.83003C913.945 9.63943 915.359 11.0891 917.15 11.8685C918.94 12.648 920.965 12.6952 922.79 12C925.15 11.18 927.33 9.93003 929.61 8.92003C930.845 8.28956 932.151 7.80946 933.5 7.49003C933.936 7.44445 934.378 7.49515 934.792 7.63856C935.207 7.78197 935.585 8.01459 935.9 8.32003C939.49 13.94 946.97 13.84 952.47 9.85003C952.63 9.73003 952.77 9.60003 952.93 9.49003C956.57 6.99003 956.93 7.02003 959.93 10.01C963.84 14.01 969.2 14.01 974.32 10.01C975.19 9.34003 976.04 8.65003 976.97 8.01003C978.67 6.91003 979.65 7.07003 980.9 8.60003C981.46 9.28003 981.9 10.02 982.43 10.74C985.07 14.6 987.75 15.19 991.96 12.57C993.344 11.6555 994.582 10.5361 995.63 9.25003C995.763 9.04214 995.938 8.86446 996.143 8.72849C996.349 8.59253 996.581 8.50132 996.824 8.46078C997.068 8.42023 997.317 8.43127 997.555 8.49315C997.794 8.55504 998.017 8.66641 998.21 8.82003C998.517 9.09817 998.743 9.45406 998.865 9.85009C998.986 10.2461 998.998 10.6676 998.9 11.07C998.205 11.9887 997.322 12.7489 996.31 13.3C995.31 13.98 994.12 14.5 993.02 15.1C990.861 16.3444 988.311 16.7268 985.881 16.1704C983.452 15.6141 981.323 14.1602 979.92 12.1C978.54 9.95003 978.54 9.95003 976.52 11.67C970.84 16.52 964.29 16.67 958.44 11.91C957.37 11.05 956.62 10.82 955.36 11.76C953.217 13.401 950.7 14.4854 948.036 14.9164C945.371 15.3474 942.641 15.1116 940.09 14.23C938.141 13.4989 936.349 12.4027 934.81 11C934.467 10.6033 933.986 10.3516 933.464 10.2959C932.943 10.2402 932.419 10.3847 932 10.7C930 11.78 927.85 12.76 925.74 13.7C920.22 16.23 914.35 13.94 911.13 10.15C910.22 9.08003 909.68 8.88003 908.64 9.78003C908.15 10.2 907.56 10.53 907.11 10.97C902.55 15.48 894.57 14.6 889.88 10.69C887.94 9.07003 887.43 8.93003 885.67 10.76C883 13.64 879.38 14 875.6 14.23C872 14.43 869.37 12.9 867.11 10.64L865.23 8.72003Z" fill="black"/>
</svg>
