<?xml version="1.0" encoding="utf-8"?>
<!-- Generator: Adobe Illustrator 16.0.0, SVG Export Plug-In . SVG Version: 6.00 Build 0)  -->
<!DOCTYPE svg PUBLIC "-//W3C//DTD SVG 1.1//EN" "http://www.w3.org/Graphics/SVG/1.1/DTD/svg11.dtd">
<svg version="1.1" id="Ebene_1" xmlns="http://www.w3.org/2000/svg" xmlns:xlink="http://www.w3.org/1999/xlink" x="0px" y="0px"
	 width="595.281px" height="197px" viewBox="0 301.445 595.281 197" enable-background="new 0 301.445 595.281 197"
	 xml:space="preserve">
<path d="M483.646,388.919c-0.15,0.489-0.336,0.967-0.557,1.429c-2.896,5.953-5.596,11.906-8.73,17.819
	c-3.555,7.793-8.738,14.735-15.199,20.358c-2.023,1.548-2.303,1.429-2.738-1.032c-0.18-0.522-0.434-1.018-0.754-1.468
	c-0.516,0.317-1.311,0.516-1.588,1.031c-0.793,1.469-1.428,3.057-2.143,4.644c-0.352,1.13-0.846,2.21-1.469,3.215
	c-0.992,1.19-2.342,2.896-3.492,2.857c-1.15-0.04-2.619-1.905-3.016-3.215c-0.633-2.731-1.084-5.503-1.35-8.294
	c0-0.397,0-0.794,0-1.19c-0.439,0.146-0.855,0.361-1.23,0.635c-1.588,1.746-3.135,3.571-4.762,5.278
	c-0.596,0.674-1.35,1.587-2.143,1.706c-1.137,0.106-2.279-0.114-3.295-0.635c-0.316,0,0-1.627,0-2.461
	c0.502-0.979,0.914-2.002,1.23-3.056c0-1.15,0.238-2.817-0.438-3.373c-0.674-0.556-2.301,0-3.412,0
	c-0.777,0.346-1.459,0.877-1.984,1.548c-3.373,3.651-6.746,7.263-10.08,10.953c-1.598,2.199-4.674,2.687-6.873,1.089
	c-0.521-0.379-0.965-0.856-1.303-1.406c-1.705-2.738-3.055-2.619-5.119-0.754c-1.021,0.96-2.629,0.909-3.59-0.113
	c-0.148-0.157-0.275-0.332-0.379-0.522c-1.057-1.556-1.947-3.219-2.658-4.96c-0.715-1.707-1.666-1.627-2.539-0.357
	c-1.586,2.214-3.02,4.534-4.287,6.945c-0.834,1.547-1.666,2.42-3.611,1.865c-1.943-0.556-1.588-1.746-1.35-3.175
	c0.477-3.532,0.834-7.104,1.191-10.636c-0.063-0.823-0.223-1.636-0.477-2.422c-0.793,0.397-1.904,0.596-2.262,1.271
	c-1.865,3.254-3.572,6.588-5.238,9.961c-0.873,1.826-1.627,3.73-2.381,5.636c-0.754,1.904-2.025,1.865-3.018,0.437
	c-0.721-1.003-1.084-2.219-1.031-3.453c0.635-6.469,1.549-12.857,2.223-19.287c0.09-1.073-0.32-2.127-1.111-2.857
	c-0.986-0.377-2.102-0.178-2.896,0.516c-1.205,1.449-2.049,3.163-2.461,5.001c-0.516,3.016-0.238,6.111-0.635,9.167
	c-0.166,4.096-3.619,7.281-7.715,7.116c-0.074-0.003-0.148-0.007-0.223-0.012c-2.703,0.44-5.254-1.394-5.695-4.098
	c-0.055-0.338-0.074-0.681-0.059-1.022c0-1.587,0-3.254,0-4.842c-0.051-0.47-0.186-0.927-0.396-1.349
	c-0.438,0.277-1.111,0.437-1.311,0.833c-0.473,1.001-0.869,2.036-1.189,3.096c-0.369,1.345-0.807,2.669-1.311,3.969
	c-0.793,1.746-1.389,4.167-3.969,3.968c-2.58-0.198-3.174-2.658-3.572-4.802c-0.396-2.143-0.475-3.571-0.674-5.357
	c0-1.071-0.555-1.825-1.547-0.635c-4.564,4.57-7.289,10.657-7.66,17.104c0.215,6.836-2.168,13.5-6.668,18.652
	c-0.555,0.539-1.346,0.764-2.102,0.595c-3.9-1.695-5.688-6.23-3.992-10.13c0.211-0.485,0.471-0.947,0.777-1.379
	c2.063-3.969,3.969-7.937,6.15-12.104c0.543-0.975,0.955-2.016,1.23-3.096c0.1-1.229,0.1-2.463,0-3.69
	c-0.908,0.499-1.781,1.056-2.619,1.666c-1.43,1.376-3.689,1.376-5.119,0c-0.707-0.471-1.385-0.988-2.023-1.548
	c-1.627-1.746-2.818-1.746-3.969,0.477c-0.477,0.834-2.145,1.865-2.738,1.627c-1.129-0.605-1.971-1.633-2.342-2.857
	c-0.596-2.262-0.676-4.683-1.111-7.023c0-0.675-0.674-1.707-1.15-1.786c-0.807-0.074-1.6,0.234-2.145,0.833
	c-0.896,1.129-1.645,2.369-2.221,3.691c-0.873,2.023-1.508,4.206-2.461,6.19c-0.498,0.837-1.127,1.588-1.866,2.223
	c-0.793-1.032-1.984-1.944-2.302-3.096c-0.136-1.433-0.055-2.877,0.238-4.286c0-1.984,0.357-3.969,0.238-5.913
	c-0.017-1.393-0.386-2.758-1.072-3.969c-1.092-1.146-2.349-2.123-3.73-2.897c-0.703,1.182-1.313,2.416-1.825,3.691
	c-1.389,4.365-2.62,8.85-3.969,13.215c-0.472,1.371-1.245,2.618-2.262,3.651c-1.361,1.58-3.559,2.149-5.516,1.429
	c-4.31-0.902-8.097-3.451-10.556-7.104c-0.238-0.357-0.992-0.794-1.19-0.675c-0.481,0.282-0.815,0.761-0.913,1.31
	c0,2.024,0,3.969,0.317,6.111c0.318,2.144,0,3.374-1.944,4.286c-1.945,0.913-1.984,0.357-2.143-1.23
	c-0.595-5.556-1.349-11.151-1.945-16.747c-0.714-6.746-1.468-13.493-1.944-20.239c-0.831-8.842-3.726-17.365-8.453-24.883
	c-2.289-3.467-5.907-5.836-10-6.548c-1.865-0.477-3.175,1.111-3.056,3.413c0,3.056,0.437,6.111,0.516,9.167
	c0.317,11.271,0.635,22.541,0.873,33.852c-0.197,2.924,0.406,5.847,1.747,8.453c1.442,2.722,1.179,6.032-0.675,8.493
	c-1.032,1.825-2.897,1.904-3.969,0c-0.862-1.546-1.352-3.272-1.429-5.04c-0.238-10.438-0.238-20.875-0.357-31.313
	c0-11.311-0.278-22.66-0.317-33.971c0-3.056,0.357-6.071,0.437-9.088c0-4.604,0-9.207,0.278-13.811
	c0.044-1.616,0.311-3.219,0.793-4.762c0.278-0.794,1.23-1.39,1.905-2.104c0.516,0.794,1.429,1.587,1.429,2.421
	c0.022,1.949-0.084,3.897-0.317,5.833c-0.437,5.199-0.873,10.358-1.27,15.557c0,1.628-1.071,3.969,1.032,4.524
	c1.934,0.714,4.059,0.714,5.993,0c7.351-3.893,13.79-9.304,18.89-15.874c1.469-1.786,2.778-3.69,4.405-5.317
	c0.846-0.719,1.954-1.05,3.056-0.913c0.833,0.198,2.063,1.508,1.984,2.183c-0.08,0.675-1.35,1.667-2.143,2.421
	c-1.516,1.197-2.923,2.525-4.207,3.969c-3.276,5.229-7.393,9.882-12.184,13.771c-1.841,1.384-3.808,2.593-5.874,3.611
	c-2.42,1.032-1.667,1.706,0,2.698c1.485,0.81,2.893,1.753,4.207,2.818c4.843,4.557,8.015,10.608,9.008,17.184
	c1.468,8.373,2.341,16.826,3.453,25.279c0.317,2.619,0.476,5.238,0.794,7.938c0.12,0.455,0.293,0.895,0.516,1.31
	c0.357-0.396,0.873-0.714,1.072-1.19c0.595-1.31,1.032-2.699,1.627-3.969c3.413-7.659,7.699-8.215,14.208-6.707
	c1.786,0.396,2.817,0.556,3.373-1.588c0.201-1.388,1.49-2.35,2.878-2.148c0.24,0.034,0.474,0.104,0.694,0.204
	c2.875,0.646,5.651,1.674,8.254,3.056c1.667,1.111,2.302,3.969,3.412,5.715l1.43,2.54c0.564-0.677,1.205-1.289,1.904-1.825
	c1.389-0.913,2.938-2.342,4.246-2.223c1.311,0.119,2.064,2.143,3.096,3.334c0,0,0,0,0,0.237c1.906,5.557,1.945,5.597,6.588,1.865
	c1.398-1.245,2.723-2.57,3.969-3.968c1.459-1.906,4.027-2.576,6.23-1.628c3.652,1.548,4.525,2.818,4.445,6.231
	c0,1.389,0,2.738,0,3.969c0,0.516,0.316,1.27,0.715,1.428c0.549,0.161,1.141,0.043,1.586-0.317c0.84-0.862,1.572-1.821,2.184-2.857
	c5.861-10.441,9.887-21.811,11.906-33.613c1.418-6.904,3.713-13.599,6.824-19.922c1.23-2.738,2.502-3.136,5.318-2.024l1.668,0.715
	c3.373,1.27,3.967,2.777,2.816,6.111c-1.943,4.763-3.969,9.485-6.23,14.088c-3.293,6.747-6.785,13.454-10.199,20.121
	c-2.479,5.564-3.477,11.675-2.896,17.739c0,0.397,0.436,0.794,0.674,1.23c0.318-0.238,0.795-0.396,0.953-0.715
	c1.146-1.706,1.906-3.644,2.223-5.675c0-4.881,3.412-6.31,6.826-7.938c1.484-0.243,2.998-0.243,4.484,0
	c0.021,1.601-0.139,3.198-0.477,4.763c-0.557,1.865-1.707,3.532-2.422,5.357c-0.396,0.913-0.912,2.223-0.555,2.937
	c0.896,1.351,1.934,2.602,3.096,3.73c0.873-0.912,2.223-1.706,2.461-2.777c0.818-3.29,1.311-6.653,1.467-10.041
	c0-5.278,0-5.278,5.041-6.905l5.039-1.746c2.422-0.912,4.207,0,3.969,2.778c-0.238,2.777-0.477,5.238-0.594,7.937
	c0.084,0.806,0.285,1.594,0.594,2.342c0.623-0.351,1.207-0.763,1.746-1.23c2.064-2.023,3.969-3.969,6.152-6.111
	c2.182-2.143,3.77-1.667,4.365,1.19c0.18,2.086,0.18,4.185,0,6.271c0,0.992,0.277,1.944,0.396,2.937
	c0.857-0.265,1.693-0.597,2.5-0.992c1.271-0.984,2.598-1.898,3.969-2.738c2.5-1.19,3.73-0.396,3.969,2.342c0,1.35,0,2.738,0,3.969
	c0.121,0.555,0.322,1.09,0.596,1.587l1.428-0.873c4.287-3.095,5.754-7.938,8.373-12.382c0.631-1.305,1.432-2.519,2.383-3.611
	c0.951-0.873,2.619-1.905,3.531-1.588c1.355,0.578,2.365,1.751,2.738,3.176c1.105,4.796-1.385,9.696-5.914,11.628
	c-1.982,1.11-3.57,2.341-3.055,5s1.984,3.175,3.77,1.548c2.582-2.411,4.922-5.069,6.984-7.938c2.941-4.282,7.084-7.597,11.906-9.524
	c1.51-0.891,3.457-0.39,4.348,1.121c0.123,0.209,0.223,0.433,0.295,0.665c0.596,1.666,1.508,1.865,3.137,1.15
	c2.406-0.751,4.877-1.282,7.381-1.587c0.986-0.063,1.979,0.031,2.936,0.277c-0.225,0.842-0.516,1.665-0.873,2.461
	c-1.348,2.658-2.816,5.278-4.205,7.938c-0.398,0.748-0.629,1.574-0.676,2.42c0.141,0.78,0.408,1.531,0.795,2.223
	c0.713-0.357,1.785-0.556,2.063-1.15c1.311-2.619,2.422-5.397,3.65-7.938c0.637-1.35,1.469-2.58,2.223-3.969
	c1.16,0.788,2.215,1.722,3.137,2.778c1.189,1.667,1.865,1.667,3.174,0c5.652-6.842,10.561-14.265,14.645-22.145
	c3.969-7.54,8.811-14.803,13.215-22.224c0.953-1.627,1.945-1.707,3.572-0.754c1.627,0.952,1.467,1.19,0.793,2.5
	c-3.436,6.714-5.717,13.958-6.746,21.43c-0.252,1.681-0.344,3.382-0.277,5.08c0.189,0.658,0.695,1.179,1.348,1.389
	c1.303,0.3,2.635,0.446,3.969,0.437c1.707,0,3.057,0.556,3.295,2.421s-1.984,4.444-3.373,4.326c-0.557,0-0.953-0.953-1.549-1.35
	c-1.055-0.962-2.318-1.668-3.689-2.063c-0.557,0-1.746,1.904-1.945,3.095c-0.477,3.017-0.516,6.072-0.754,9.128
	c-0.318,3.691-0.557,7.422-0.953,11.152c-0.191,0.832-0.5,1.633-0.912,2.381c-0.842-0.734-1.555-1.606-2.104-2.58
	c-0.238-1.085-0.238-2.209,0-3.294c-0.086-5.722-1.201-11.381-3.293-16.707c-0.875-3.175-0.557-3.572,2.578-4.723
	c1.111-0.437,2.619-1.39,2.857-2.342c1.27-5.317,2.223-10.755,3.254-16.112L483.646,388.919z M282.6,422.771
	c0-0.397-0.318-1.469-0.675-1.509c-2.937-0.516-2.897-2.937-3.532-5c-0.351-0.753-1.047-1.286-1.865-1.429
	c-3.061,0.352-5.594,2.54-6.389,5.516c-1.012,3.722,0.32,7.686,3.373,10.041c1.314,0.969,3.017,1.235,4.564,0.715
	C280.703,429.099,282.349,426.067,282.6,422.771z M359.906,373.679l-1.23-2.143c-0.713,0.477-1.824,0.794-2.063,1.429
	c-1.945,4.802-3.73,9.644-5.516,14.485c0,0.437,0.236,1.031,0.355,1.548c0.438-0.318,1.072-0.517,1.35-0.953
	c1.945-3.214,3.969-6.389,5.637-9.683C359.044,376.841,359.535,375.275,359.906,373.679z M417.371,416.222
	c0-0.396-0.555-1.27-0.992-2.143c-0.385-0.031-0.766,0.082-1.07,0.317c-1.391,2.063-2.699,3.969-3.969,6.23
	c0,0,0.357,1.15,0.635,1.19C413.917,422.056,417.332,418.842,417.371,416.222z M325.777,421.302
	c-0.357-0.715-0.555-1.548-0.992-1.746c-0.625-0.153-1.285-0.007-1.785,0.396c-0.914,0.839-1.609,1.888-2.023,3.056
	c-0.076,1.127,0.059,2.257,0.396,3.334c1.059-0.485,2.047-1.113,2.936-1.865C324.962,423.504,325.458,422.431,325.777,421.302z
	 M327.246,446.979l-0.912-0.556c-1.152,1.865-2.264,3.73-3.334,5.635c-0.063,0.319,0.041,0.648,0.277,0.873
	c0.318,0,0.953,0,1.072-0.238C325.419,450.828,326.292,448.725,327.246,446.979z"/>
<path d="M532.894,418.802c-0.594-7.66-1.389-15.279-1.824-22.938c-0.992-6.071-0.992-12.264,0-18.335c0-0.595,0-1.389,0.516-1.667
	c1.051-0.736,2.15-1.399,3.293-1.983c0.182,1.09,0.301,2.189,0.357,3.294c0,6.389-0.357,12.778,0,19.168
	c0.326,4.724,0.908,9.427,1.746,14.088c0.676,4.604,1.549,9.207,2.381,13.811c0.129,0.434,0.314,0.848,0.557,1.23
	c0.396-0.277,0.953-0.477,1.189-0.833c3.15-4.551,5.963-9.326,8.414-14.287c5.357-12.818,10.238-25.835,15.121-38.853
	c0.951-2.539,2.539-2.579,4.604-2.46c2.063,0.119,2.738,1.31,2.857,3.175c0.117,1.865,0.475,3.215,0.475,4.842
	c0,2.539-1.07,3.095-3.332,2.063c-0.357,0-1.469,0.396-1.707,0.873c-3.969,8.294-7.938,16.628-11.906,24.922
	c-4.445,9.326-8.889,18.652-13.533,27.78c-0.863,1.489-2.297,2.563-3.967,2.977c-2.264,0.357-3.137-1.865-3.453-3.73
	c-0.715-4.365-1.191-8.811-1.787-13.176V418.802z"/>
<path d="M520.871,413.961c0.094,4.224-2.457,8.058-6.391,9.604c-3.313,0.844-5.314,4.214-4.471,7.527
	c0.115,0.459,0.285,0.902,0.504,1.323c0.193,1.101,1.244,1.835,2.346,1.64c0.332-0.059,0.645-0.199,0.908-0.41
	c1.443-1.196,2.771-2.525,3.969-3.968c0.516-0.517,1.15-0.913,1.705-1.39c0.438,0.834,1.311,1.667,1.271,2.5
	c-0.939,3.44-3.76,6.044-7.264,6.707c-3.449,0.32-6.66-1.788-7.738-5.079c-1.182-3.633-0.777-7.595,1.111-10.914
	c2.033-3.895,4.285-7.671,6.746-11.311c0.98-1.604,2.953-2.3,4.723-1.667c1.779,0.796,2.816,2.675,2.541,4.604L520.871,413.961z
	 M518.251,415.588l-1.627-2.977c-0.672,0.499-1.271,1.087-1.787,1.746c-0.682,1.271-1.252,2.599-1.705,3.969
	c0,0.277,0.396,0.714,0.635,1.111L518.251,415.588z"/>
<path d="M550.357,435.907l-1.707-2.104c0.674-0.516,1.469-1.508,2.064-1.429c0.904,0.208,1.639,0.868,1.943,1.746
	c0,0.714-0.555,1.667-0.873,2.54L550.357,435.907z"/>
<path d="M529.085,432.851l-1.945,1.865c-0.396-0.517-1.07-1.072-0.992-1.548c0.176-0.649,0.646-1.179,1.27-1.429
	C527.816,431.502,528.332,432.177,529.085,432.851z"/>
<path d="M204.657,371.1c0,1.27,0,2.183,0,3.135c-0.042,0.438,0.22,0.848,0.635,0.992c0.404,0.222,0.85,0.356,1.31,0.397
	c0.854,0.076,1.592,0.63,1.905,1.429c0.162,0.407,0.268,0.834,0.317,1.27c0,0.357,0.278,0.635,0.357,0.992
	c0.042,0.263,0.042,0.53,0,0.794c0,1.508,0,2.977,0,4.444c0.019,0.092,0.019,0.187,0,0.278c-0.517,1.212-1.155,2.368-1.905,3.452
	c-0.357,0.396-0.595,1.032-1.032,1.23c-0.502,0.236-1.084,0.236-1.587,0c-0.793-0.477-1.587-0.278-1.786,0.635
	c0,0.317-0.198,0.675-0.317,1.032c-0.119,0.356-0.357,1.19-0.595,1.785c-0.425,1.307-1.025,2.548-1.786,3.691
	c-0.666,0.994-1.423,1.924-2.262,2.777c-0.555,0.556-1.23,0.953-1.786,1.429c-0.197,0.215-0.382,0.44-0.556,0.675l-1.071,0.675
	l-2.024,1.429c-0.249,0.194-0.515,0.367-0.794,0.516l-2.341,1.19c-0.833,0.397-1.667,0.715-2.5,1.151
	c-0.833,0.437-1.191,0.357-1.747,0.595c-0.856,0.239-1.692,0.544-2.5,0.913c-0.123,0.035-0.225,0.122-0.278,0.238
	c-0.282,0.44-0.446,0.946-0.476,1.469c0,0.437-0.238,0.873-0.278,1.349c-0.191,0.346-0.191,0.766,0,1.111
	c0.412,0.656,0.952,1.223,1.587,1.667h0.278c1.285,0.378,2.369,1.248,3.016,2.421c0.278,0.503,0.454,1.056,0.516,1.627
	c0.125,0.361,0.218,0.733,0.278,1.111c-0.058,0.593-0.177,1.178-0.357,1.746c-0.155,0.575-0.396,1.124-0.714,1.627
	c-0.714,0.913-1.31,1.984-2.699,2.063c0,0-0.238,0-0.397,0c-0.461,0.233-1.006,0.233-1.468,0c-1.271-0.641-2.821-0.231-3.611,0.953
	c-0.39,0.742-0.827,1.458-1.31,2.143c-0.238,0.477-0.437,1.032-0.714,1.548s-0.635,1.032-0.873,1.588
	c-0.238,0.555-0.476,1.587-0.476,2.183c-0.452,0.822-1.145,1.486-1.984,1.904c-0.792,0.255-1.551,0.602-2.262,1.032
	c-0.635,0.476-1.508,0.437-1.944,1.19s-0.596,0.317-0.873,0.556c-0.567,0.701-0.745,1.64-0.477,2.5c0.019,0.198,0.019,0.397,0,0.596
	c0.075,1.254,0.356,2.488,0.833,3.65c0.278,0.715,0.754,1.35,1.032,2.063c0.585,1.109,1.412,2.073,2.421,2.818
	c0.726,0.631,1.227,1.48,1.429,2.421c0,0.793,0.397,1.587,0.476,2.381c0.014,1.407-0.387,2.787-1.151,3.969
	c-0.436,0.746-0.833,1.515-1.19,2.302c-0.548,1.213-1.255,2.347-2.104,3.373c-0.539,0.784-1.136,1.527-1.786,2.223
	c-0.572,0.545-1.182,1.049-1.826,1.508c-0.957,0.53-2.008,0.867-3.095,0.992c-0.273,0.074-0.561,0.074-0.833,0
	c-0.595,0-1.151,0-1.587,0.357c-0.437,0.356,0,0-0.317,0c-0.492,0.238-0.895,0.628-1.151,1.11l-1.151,1.588l-0.913,1.19
	c-0.555,0.794-1.111,1.548-1.627,2.342c-0.516,0.793-0.317,0.674-0.516,0.952c-0.443,0.583-0.92,1.14-1.429,1.667
	c-0.604,0.565-1.303,1.022-2.064,1.349c-0.318,0.142-0.651,0.248-0.992,0.317l-1.27,0.357c-0.374,0.121-0.777,0.121-1.151,0
	c-0.42-0.078-0.851-0.078-1.27,0h-0.397c-1.151,0-2.262,0.238-3.373,0.437c-0.877,0.204-1.739,0.47-2.58,0.794h-0.278
	c-0.429-0.117-0.867-0.197-1.31-0.238c-2.024,0-3.969,0-6.032,0c-0.835-0.109-1.659-0.295-2.46-0.556l0,0l-2.857-0.396l-2.302-0.516
	l-1.508-0.278l-2.58-0.833h-0.357c-0.953-0.238-1.905-0.397-2.818-0.675c-0.81-0.256-1.594-0.588-2.341-0.992
	c-0.972-0.474-1.868-1.089-2.659-1.825l-1.786-1.707c-0.242-0.235-0.432-0.52-0.556-0.833c-0.547-0.93-0.961-1.932-1.23-2.977
	c0-0.913-0.397-1.786-0.595-2.698c-0.199-0.913-0.675-0.913-0.675-1.667c-0.329-0.74-0.582-1.511-0.754-2.302
	c-0.198-1.032-0.873-1.944-0.754-3.096c0-0.477-0.437-0.675-0.873-0.396c-0.389,0.36-0.814,0.68-1.27,0.952
	c-0.279,0.119-0.594,0.119-0.873,0c-0.89-0.614-2.041-0.705-3.016-0.238c-0.714,0.317-1.508,0.397-2.262,0.675
	c-1.183,0.279-2.397,0.399-3.611,0.357c-0.738-0.027-1.475,0.066-2.183,0.277c-1.27,0.477-2.659,0-3.969,0.517h-0.397
	c-0.198,0-0.396,0-0.555,0c-1.229-0.375-2.542-0.375-3.771,0c-1.428,0.277-2.817,0-4.207,0.277c-0.44,0.144-0.891,0.249-1.349,0.317
	c-1.349,0-2.659,0-3.969,0c-0.985,0.16-1.991,0.16-2.976,0c-1.011-0.176-2.032-0.295-3.056-0.357c-1.032,0-2.063-0.317-3.056-0.556
	c-0.769-0.235-1.524-0.514-2.262-0.833h-0.277c-1.17-0.452-2.277-1.053-3.294-1.786c-0.563-0.437-1.082-0.929-1.548-1.468
	l-2.58-2.58l-1.31-1.389l-2.183-2.619l-1.389-1.627c-0.04-0.103-0.04-0.216,0-0.317c0,0,0-0.318,0-0.437
	c0-0.119-0.714-1.151-0.992-1.707s-0.476-1.23-0.714-1.825c-0.238-0.596-0.714-1.469-0.952-2.223
	c-0.238-0.754-0.516-2.023-0.754-3.016c-0.238-0.992-0.396-1.588-0.555-2.382c-0.019-0.171-0.019-0.344,0-0.516
	c0-1.19,0-2.342,0-3.532c0.014-0.879,0.107-1.756,0.277-2.619c0-0.952,0.556-1.865,0.833-2.777c0.278-0.913,0-0.873,0.278-1.271
	c0.278-0.396,0.635-1.786,0.913-2.659c0.277-0.873,0.396-1.349,0.635-1.984c0.238-0.635,0.714-1.666,0.992-2.5
	c0.278-0.833,0.476-1.429,0.754-2.143c0.077-0.193,0.169-0.379,0.278-0.556c0.397-0.913,0.754-1.826,1.151-2.778
	c0.182-0.605,0.014-1.263-0.437-1.706c-0.172-0.181-0.259-0.427-0.238-0.675c0-0.596,0-1.032-0.714-1.071
	c-0.791-0.1-1.59-0.1-2.381,0c-0.412,0.139-0.858,0.139-1.27,0c-0.481-0.125-0.973-0.205-1.468-0.238l-1.587-0.278h-0.238
	l-3.968-0.356c-0.754,0-1.508-0.199-2.262-0.238h-1.35c-0.409,0.038-0.821,0.038-1.23,0l-0.953-0.278l-1.707-0.476
	c-0.635,0-1.31-0.397-1.905-0.635c-0.595-0.238-1.19-0.636-1.786-0.913c-0.595-0.278-0.476,0-0.675-0.238
	c-0.773-0.408-1.627-0.639-2.5-0.675c-0.516,0-0.992-0.476-1.508-0.714c-0.848-0.433-1.572-1.075-2.103-1.865
	c-0.477-0.636-1.032-1.23-1.587-1.865c-0.273-0.313-0.525-0.646-0.754-0.992c-0.409-0.653-0.78-1.329-1.111-2.024
	c-0.317-0.675-0.397-1.429-0.714-2.063c-0.559-1.134-0.973-2.334-1.23-3.571c-0.309-1.299-0.416-2.638-0.317-3.969
	c0-2.461,0-4.921,0-7.342c-0.05-1.068,0.057-2.138,0.317-3.175c0.167-1.282,0.543-2.529,1.111-3.69
	c0.269-0.569,0.507-1.152,0.714-1.747c0.425-0.746,0.903-1.463,1.429-2.143c0.437-0.596,0.913-1.15,1.389-1.706l0.754-0.636
	l1.547-1.229l1.469-1.588c0.635-0.595,1.19-1.27,1.825-1.865c0.39-0.337,0.761-0.694,1.111-1.071
	c0.474-0.462,1.042-0.813,1.667-1.032c0,0,0.278,0,0.317,0c0.437-0.754,1.349-0.675,2.024-1.031
	c0.487-0.214,1.017-0.309,1.548-0.278c1.746,0,3.492-0.238,5.238-0.437c0.437,0,0.873-0.277,1.31-0.317
	c0.315-0.059,0.638-0.059,0.953,0h0.595h1.548c0.705-0.076,1.39-0.277,2.024-0.595c0.436-0.158,0.913-0.158,1.349,0
	c0.979,0.524,2.001,0.962,3.056,1.31c0.714,0,1.389,0.556,2.143,0.833c0.291,0.02,0.583,0.02,0.873,0
	c0.477,0,0.516-0.317,0.556-0.556c0.039-0.449,0.039-0.9,0-1.35c0-0.476-0.357-0.952-0.437-1.429
	c-0.278-1.229-0.476-2.46-0.675-3.729c-0.198-1.271-0.357-1.984-0.437-3.017c-0.079-1.032,0-1.984,0-2.977c0-0.238,0-0.437,0-0.675
	c0.066-1.098,0.437-2.156,1.072-3.056c0-0.277,0.556-0.437,0.833-0.635c0.285-0.226,0.591-0.425,0.913-0.596
	c0.14-0.055,0.296-0.055,0.437,0c0.349,0.266,0.847,0.197,1.112-0.151c0.089-0.117,0.144-0.257,0.158-0.403
	c0.317-1.429,0.516-2.938,0.873-4.366c0.357-1.429,0.714-2.817,0.952-4.246c0.226-1.027,0.531-2.036,0.913-3.016
	c0.455-1.432,1.153-2.774,2.063-3.969c0.598-0.688,1.278-1.302,2.024-1.825c0.599-0.413,1.111-0.939,1.508-1.548
	c0.469-0.667,1.115-1.189,1.865-1.509c1.052-0.476,2.181-0.758,3.333-0.833c0.933-0.153,1.849-0.393,2.738-0.714l2.143-0.755
	l1.786-0.793l0,0c0.754,0,1.468-0.278,2.222-0.357c0.754-0.079,0.833,0,1.111-0.437s0.397,0,0.595,0c0.37,0.041,0.742,0.041,1.111,0
	c0.317,0.019,0.635,0.019,0.953,0c0.893-0.042,1.781-0.148,2.659-0.317c1.151-0.357,2.341-0.397,3.453-0.635
	c1.873-0.19,3.753-0.283,5.635-0.278c0.526,0.016,1.051-0.065,1.548-0.238c0.65-0.222,1.34-0.303,2.024-0.237h5.953
	c0.218-0.079,0.457-0.079,0.675,0c0.397,0.396,0.873,0.317,1.31,0.356l2.302,1.151c0.953,0.238,1.865,0.437,2.778,0.754
	c0.758,0.276,1.5,0.595,2.223,0.952c0.789,0.397,1.596,0.755,2.421,1.071c0.793,0.278,1.667,0.397,2.46,0.596l3.175,0.794
	c0.913,0.182,1.814,0.421,2.699,0.714c0.743,0.2,1.443,0.536,2.063,0.992c0.331,0.287,0.69,0.539,1.071,0.754
	c0.562,0.412,0.911,1.052,0.953,1.746c0.194,0.8,0.753,1.461,1.508,1.786h0.238c0.238,0.635,0.992,0.516,1.389,0.873
	c0.344,0.22,0.629,0.52,0.833,0.873c0.238,0.873,0.397,1.786,0.556,2.698l0,0c0,1.072,0.238,2.144,0.437,3.215
	c0.437,2.5,0,5,0.238,7.501c0.085,1.047,0.271,2.084,0.556,3.095c0.275,0.65,0.607,1.274,0.992,1.865
	c0.357,0.675,0.754,1.35,1.071,2.064c0.337,0.744,0.615,1.514,0.833,2.302c0.042,0.236,0.042,0.478,0,0.714c0,1.19,0,2.381,0,3.571
	c0,0.517-0.238,1.072-0.278,1.588c-0.044,0.656,0.452,1.224,1.108,1.268c0.014,0.001,0.029,0.002,0.043,0.002
	c0.238,0,0.437,0,0.675,0.238c0.325,0.152,0.674,0.247,1.032,0.278c0.953,0,1.905,0,2.857,0l2.58,0.317
	c0.322-0.061,0.64-0.141,0.952-0.238c0.208-0.058,0.427-0.058,0.635,0c0.957,0.341,1.961,0.528,2.976,0.556
	c0.953,0,1.826,0.396,2.738,0.556c0.628,0.063,1.251,0.17,1.865,0.317c1.075,0.253,2.037,0.853,2.738,1.706
	c0.511,0.627,0.877,1.358,1.072,2.144c0,0,0.198,0.238,0.317,0.396c0.556,0.754,1.032,1.548,1.627,2.223
	c0.476,0.488,1.042,0.879,1.667,1.15c0.451,0.045,0.895-0.133,1.19-0.476c0.334-0.449,0.602-0.943,0.794-1.469
	c0.318-0.589,0.596-1.199,0.833-1.825c0-0.397,0.318-0.794,0.437-1.19c0.235-1.404,0.733-2.751,1.469-3.969
	c0.419-0.586,0.96-1.073,1.587-1.429c0.791-0.429,1.63-0.762,2.5-0.992c0.386-0.13,0.804-0.13,1.19,0
	c0.655,0.309,1.383,0.433,2.104,0.357c0.437,0,0.953,0,1.389,0c0.491-0.192,0.968-0.418,1.428-0.675l1.826-0.834
	c1.339-0.515,2.777-0.719,4.207-0.595c0.596,0,1.191-0.238,1.786-0.278c0.595-0.039,0.635,0,0.952,0h2.024h0.556l3.215,0.318
	c0.362,0.059,0.711,0.179,1.032,0.356l2.103,0.794l1.469,0.596c0.793,0.356,1.547,0.714,2.341,1.15
	c1.253,0.622,2.426,1.395,3.492,2.302c0.516,0.477,1.111,0.834,1.587,1.31c0.803,0.763,1.461,1.663,1.945,2.659
	C204.568,367.107,204.898,369.118,204.657,371.1z M77.942,454.44c1.23,0,2.738-0.278,4.207-0.357h7.938
	c1.563,0.024,3.12-0.218,4.604-0.715c0.793-0.277,1.627-0.396,2.46-0.635c0.688-0.175,1.354-0.428,1.984-0.754
	c0.838-0.437,1.646-0.927,2.421-1.469c0.417-0.259,0.803-0.565,1.151-0.912c0.547-0.526,1.063-1.083,1.548-1.667
	c0.556-0.715,1.111-1.469,1.587-2.223s0.437-1.23,0.794-1.746c0.708-1.142,1.268-2.368,1.667-3.65
	c0.397-0.913,0.595-1.905,0.953-2.857c0.304-1.048,0.49-2.126,0.556-3.215c0-2.024,0.198-3.969,0.278-6.072
	c0.079-2.103,0.277-4.802,0.277-7.183c-0.022-1.074,0.831-1.963,1.904-1.984c0,0,0,0,0.001,0h0.556c0.873,0,1.706-0.357,2.579-0.477
	s1.707,0,2.58-0.277c0.419-0.054,0.823-0.188,1.191-0.397c0.974-0.491,1.776-1.266,2.302-2.222c0.534-0.766,0.667-1.74,0.357-2.62
	c-0.225-0.693-0.637-1.311-1.19-1.785c-0.985-0.841-2.237-1.305-3.532-1.31c-1.089-0.001-2.172,0.16-3.214,0.476
	c-1.24,0.253-2.507,0.347-3.77,0.278c-0.585-0.074-1.078-0.474-1.27-1.032c-0.375-0.729-0.694-1.484-0.953-2.262
	c-0.394-1.132-0.872-2.232-1.429-3.294c-0.497-0.986-0.922-2.008-1.27-3.056c-0.082-0.273-0.188-0.539-0.318-0.794l-1.19-2.302
	c-0.278-0.595-0.516-1.27-0.833-1.865c-0.317-0.595-0.913-1.587-1.389-2.341c-0.267-0.487-0.572-0.951-0.913-1.39
	c-0.753-1.088-1.799-1.94-3.016-2.46c-0.927-0.415-1.922-0.656-2.937-0.715c-0.25,0.037-0.504,0.037-0.754,0
	c-0.794,0-1.627-0.396-2.46-0.516s-1.35,0.357-2.024,0.556c-0.873,0.308-1.711,0.707-2.5,1.19l-2.738,1.508
	c-0.918,0.405-1.773,0.94-2.54,1.588c-0.419,0.34-0.667,0.849-0.675,1.389c0,0.952,0,1.944,0,2.937
	c-0.029,0.544-0.289,1.05-0.714,1.39c-0.174,0.132-0.423,0.099-0.556-0.076c-0.061-0.08-0.089-0.181-0.079-0.281
	c0-0.357,0.278-0.715,0.396-1.111c0.119-0.396,0-0.516,0-0.715c-0.243-0.592-0.535-1.162-0.873-1.706
	c-0.346-0.789-0.861-1.494-1.508-2.063c-0.547-0.402-1.237-0.561-1.905-0.437c-0.714,0.357-1.35,0.794-2.104,1.111
	c-0.685,0.424-1.225,1.047-1.548,1.785c-0.521,1.12-0.065,2.45,1.032,3.017c0.771,0.513,1.658,0.826,2.58,0.913
	c0.218-0.024,0.414,0.134,0.438,0.352c0.015,0.141-0.045,0.278-0.16,0.362c-0.556,0.516-1.151,0.992-1.707,1.548
	c-0.596,0.58-1.057,1.284-1.349,2.063c-0.132,0.603-0.332,1.188-0.595,1.746c-0.556,1.032-1.19,1.944-1.786,2.937l-2.183,3.969
	c-0.396,0.754-0.793,1.548-1.151,2.302c-0.357,0.754-0.357,0.952-0.516,1.389s-0.595,1.31-0.833,1.984s-0.476,1.35-0.714,2.024
	s0,0.516-0.198,0.635c-0.508,0.804-0.909,1.672-1.191,2.58c-0.31,0.692-0.562,1.409-0.754,2.143
	c-0.161,0.693-0.28,1.396-0.357,2.104c-0.029,1.091-0.135,2.179-0.318,3.254c-0.437,1.707-0.595,3.492-0.873,5.199
	c-0.14,0.521-0.246,1.052-0.317,1.587c-0.125,0.987-0.03,1.99,0.278,2.938c0.357,0.952,0.476,2.023,0.794,3.016
	c0.203,0.621,0.442,1.231,0.714,1.825c0.396,1.032,0.793,2.104,1.151,3.175c0.234,0.66,0.526,1.297,0.873,1.905
	c0.667,0.889,1.557,1.587,2.58,2.023c1.077,0.642,2.284,1.034,3.532,1.151L77.942,454.44z M93.539,325.065c-1.747,0-3.493,0-5.239,0
	c-0.805,0.055-1.602,0.188-2.381,0.397c-0.276-0.041-0.557-0.041-0.833,0c-0.754,0.356-1.468,0.793-2.183,1.19
	c-0.714,0.396-1.984,0.952-2.937,1.548c-0.805,0.401-1.469,1.038-1.905,1.825c-0.198,0.317-0.476,0.635-0.714,0.952
	c-0.238,0.317-0.793,1.151-1.111,1.746c-0.317,0.596-0.595,1.35-0.873,2.024s-0.833,1.944-1.19,2.937
	c-0.357,0.992,0,0.873-0.278,1.27c-0.278,0.397-0.595,1.667-0.873,2.54s-0.278,1.19-0.397,1.786
	c-0.069,0.428-0.162,0.852-0.278,1.27c-0.317,1.151-0.714,2.302-1.071,3.453v0.437c-0.207,0.463-0.379,0.94-0.516,1.429
	c-0.124,1.226-0.309,2.443-0.555,3.65c-0.179,0.915-0.259,1.847-0.238,2.778c-0.012,1.479,0.134,2.957,0.437,4.405
	c0.201,1.313,0.307,2.64,0.317,3.969c0,0.754,0,1.547,0,2.302c0.023,0.53,0.173,1.047,0.437,1.508
	c0.385,0.703,0.837,1.367,1.35,1.984c0.779,0.985,1.614,1.926,2.5,2.817c0.675,0.675,1.508,1.19,2.222,1.865
	c0.849,0.676,1.783,1.236,2.778,1.667c0.567,0.271,1.15,0.51,1.746,0.714c0.952,0.437,1.905,0.913,2.897,1.31
	c0.992,0.397,1.468,0.556,2.222,0.834c0.754,0.277,0.437,0,0.635,0c0.658,0.24,1.335,0.426,2.024,0.556
	c2.357,0.277,4.747,0.075,7.024-0.596c0.437,0,0.595-0.317,0.476-0.714c-0.119-0.397-0.635-0.517-0.992-0.437
	c-0.654,0.237-1.333,0.397-2.024,0.476c-0.954-0.028-1.9-0.175-2.818-0.437c-1.27-0.238-2.42-0.754-3.651-1.071l-1.151-0.238
	c-0.822-0.203-1.658-0.349-2.5-0.437c-0.516,0-1.032,0-1.27-0.556c-0.239-0.55-0.425-1.121-0.556-1.706l0,0
	c0.102-0.185,0.169-0.387,0.198-0.596c0.135-0.628,0.522-1.174,1.072-1.508c0.614-0.299,1.331-0.299,1.944,0l2.58,0.794l2.619,0.635
	l0.794,0.317c0.635,0.198,1.111,0,1.587-0.396c0.654-0.334,1.451-0.188,1.944,0.356c0.304,0.278,0.769,0.278,1.072,0
	c0.668-0.448,1.457-0.684,2.262-0.674c0.767,0.039,1.535,0.039,2.302,0c0.143,0.04,0.293,0.04,0.437,0l1.468-0.675l0.635-0.238
	l1.826-0.833l2.183-0.636l2.262-0.873c0.635-0.078,1.261-0.225,1.865-0.437c0.864-0.699,1.544-1.599,1.984-2.619
	c0.318-0.556,0.556-1.19,0.874-1.746l2.024-3.611c0.278-0.556,0.873-0.794,1.19-0.437c0.992,1.151,2.5,1.429,3.69,2.262
	c0.583,0.29,1.195,0.517,1.826,0.675c0.678,0.358,1.519,0.1,1.877-0.579c0.01-0.019,0.019-0.037,0.028-0.056l1.667-3.016
	c0.153-0.28,0.235-0.594,0.238-0.913c-0.093-0.319-0.271-0.608-0.516-0.833c-0.484-0.266-0.988-0.491-1.508-0.675
	c-0.635-0.317-1.31-0.517-1.905-0.873c-0.613-0.421-1.185-0.899-1.707-1.429c-0.537-0.494-0.992-1.07-1.349-1.707
	c-0.279-0.641-0.441-1.326-0.476-2.023c-0.238-2.144,0-4.286-0.317-6.39c-0.1-1.175-0.1-2.356,0-3.532
	c0-0.675,0.714-1.587,1.468-1.429c0.754,0.159,1.429,0.397,2.143,0.517s1.786,0.198,2.659,0.277
	c0.693-0.011,1.333-0.368,1.707-0.952c0.509-0.609,0.924-1.292,1.23-2.024c0.332-0.868,0.61-1.756,0.833-2.658
	c0.039-0.224,0.039-0.452,0-0.675c0-0.238-0.198-0.437-0.238-0.675c-0.077-0.84-0.51-1.605-1.191-2.104
	c-0.476-0.438-1.027-0.788-1.627-1.032c-0.812-0.269-1.688-0.269-2.5,0c-0.635,0.273-1.284,0.512-1.945,0.715
	c-0.726,0.06-1.456,0.06-2.183,0h-0.04l-1.746-0.873c-0.675-0.317-1.389-0.556-2.024-0.873c-0.635-0.317-1.35-0.794-2.024-1.151
	l-2.143-0.833c0,0-0.437,0-0.556,0c-0.754-0.754-1.826-0.715-2.738-1.19c-0.345-0.135-0.705-0.228-1.072-0.278
	c-1.032-0.277-2.024-0.595-3.056-0.833c-0.771-0.2-1.553-0.359-2.341-0.477c-0.858-0.222-1.735-0.368-2.619-0.437
	C97.07,325.025,95.245,325.065,93.539,325.065L93.539,325.065z M137.629,474.481L137.629,474.481l3.651-0.437
	c1.508,0,3.056-0.238,4.564-0.437c0.873,0,1.707-0.357,2.54-0.477c1.01-0.121,1.962-0.534,2.738-1.19
	c0.546-0.414,1.04-0.895,1.469-1.429c0.483-0.754,0.92-1.535,1.31-2.342c0,0,0-0.476,0.278-0.675l1.23-1.746
	c0.675-1.031,1.35-2.063,1.905-3.135c0.556-1.071,0.794-1.905,1.191-2.857c0.332-0.697,0.623-1.412,0.873-2.143
	c0.317-0.913,0.556-1.865,0.833-2.818c0.115-0.337,0.208-0.682,0.278-1.031c0.099-0.698,0.099-1.406,0-2.104
	c-0.225-0.772-0.504-1.528-0.833-2.262c-0.238-0.715-0.397-1.469-0.595-2.184c-0.338-1.055-0.617-2.128-0.833-3.214
	c-0.06-1.401-0.469-2.766-1.19-3.969c-0.42-0.695-0.957-1.313-1.588-1.825c-0.586-0.501-1.107-1.074-1.547-1.707
	c-0.352-0.582-0.81-1.094-1.35-1.508c-0.865-0.538-1.767-1.016-2.698-1.429c-0.45-0.231-0.864-0.525-1.23-0.873
	c-0.707-0.753-1.247-1.645-1.587-2.619c-0.211-0.324-0.48-0.606-0.793-0.833c-0.391-0.271-0.802-0.509-1.23-0.715l-1.786-1.15
	c-0.556-0.318-1.191-0.556-1.747-0.913c-0.544-0.406-1.114-0.778-1.706-1.111c-1.398-0.318-2.849-0.318-4.247,0
	c-0.283-0.006-0.561,0.077-0.793,0.238c-0.805,0.461-1.518,1.066-2.104,1.786c-0.212,0.336-0.451,0.654-0.714,0.952
	c-0.595,0.754-1.27,1.468-1.865,2.262c-0.681,1.065-1.153,2.251-1.389,3.492c-0.357,0.913-0.555,1.905-0.913,2.818
	c-0.357,0.912-0.793,1.627-1.19,2.46c-0.259,1.063-0.777,2.044-1.508,2.857c-0.635,0.556-1.151,1.151-2.063,1.151s-1.627,0-2.421,0
	c-0.746-0.063-1.493,0.104-2.143,0.476c-1.069,0.776-1.75,1.978-1.865,3.294c0,0.794,0.675,1.151,1.111,1.627
	c0.437,0.477,2.381,1.667,3.333,2.818c0.953,1.15,1.707,1.547,2.58,2.341c0.278,0.378,0.278,0.893,0,1.271
	c-0.278,0.317-0.635,0.277-0.952,0c-0.318-0.278-0.238,0-0.357,0c-0.607-0.144-1.204-0.329-1.786-0.556
	c-0.926-0.414-1.731-1.056-2.342-1.865c-0.702-0.721-1.351-1.49-1.944-2.302c-0.437-0.596-0.833-1.271-1.23-1.905
	c-0.128-0.265-0.221-0.545-0.278-0.833c-0.069-1.203,0.362-2.381,1.191-3.255c1.021-1.189,2.26-2.173,3.651-2.896
	c0.675-0.357,1.31-0.754,1.945-1.151c0.274-0.183,0.516-0.41,0.714-0.675c0.437-0.635,0.238-1.19-0.596-1.825
	c-1.291-0.882-2.729-1.526-4.246-1.905c-0.688-0.277-1.456-0.277-2.143,0c-0.397,0-0.833,0.238-1.19,0.438
	c-0.668,0.258-1.219,0.752-1.548,1.389c-0.317,0.675-0.714,1.31-0.992,1.984s-0.635,1.785-0.913,2.698
	c-0.242,0.874-0.428,1.762-0.556,2.659c-0.151,0.985-0.244,1.979-0.278,2.977c-0.085,2.037,0.088,4.077,0.516,6.071
	c0.167,1.104,0.272,2.218,0.317,3.334c-0.02,0.158-0.02,0.318,0,0.476c0.198,0.873,0.357,1.786,0.595,2.659
	c0.25,0.679,0.542,1.342,0.873,1.984c0.168,0.308,0.398,0.578,0.675,0.794c0.595,0.635,1.27,1.23,1.905,1.825
	c0.351,0.364,0.722,0.709,1.111,1.032l1.706,1.349l2.064,1.509l1.27,0.952c0.424,0.338,0.891,0.618,1.389,0.833
	c0.635,0.317,1.35,0.517,2.024,0.794c0.675,0.278,0.992,0.516,1.508,0.754l1.905,0.873c0.733,0.346,1.506,0.6,2.302,0.754
	c1.707,0,3.492,0,5.199,0.357C135.934,474.61,136.787,474.596,137.629,474.481z M144.534,375.267L144.534,375.267
	c0-0.794,0-1.627,0-2.461c0.022-0.819-0.14-1.633-0.477-2.381c-0.464-0.847-1.207-1.506-2.103-1.865
	c-0.516-0.277-1.151-0.357-1.667-0.675c-1.032-0.567-2.195-0.854-3.373-0.833c-1.345-0.161-2.709,0.016-3.969,0.516h-0.396
	l-1.469-0.912c-0.426-0.387-0.973-0.611-1.547-0.636c-1.021,0.079-1.985,0.498-2.738,1.19c-0.764,0.72-0.867,1.898-0.238,2.738
	c0.741,0.675,1.443,1.391,2.104,2.144c0.383,0.611,0.614,1.305,0.674,2.023c0,0.397-0.238,0.834-0.397,1.23
	c-0.159,0.397,0,0.357-0.238,0.397c-0.913,0.556-1.786,1.15-2.738,1.627c-0.724,0.332-1.466,0.623-2.223,0.873l-1.944,0.675
	l-2.5,0.714c-0.237-0.041-0.478-0.041-0.714,0c-1.072,0.556-2.064,1.19-3.135,1.707c-0.667,0.264-1.316,0.568-1.945,0.912
	c-0.864,0.562-1.687,1.185-2.46,1.865c-0.723,0.6-1.294,1.36-1.667,2.223c-0.446,0.914-0.677,1.919-0.675,2.937
	c-0.044,0.442-0.124,0.88-0.238,1.31c-0.059,0.221-0.059,0.454,0,0.675c0,0.477,0.397,0.913,0.595,1.389
	c0.54,1.214,1.77,1.971,3.096,1.905c0.833,0,1.667,0,2.46,0l3.254-0.437h0.238c0.935-0.125,1.863,0.271,2.421,1.031
	c0.322,0.918,0.391,1.905,0.198,2.857c0,0.992-0.357,1.945-0.437,2.897c-0.079,0.952,0,1.746,0,2.579
	c-0.023,0.132-0.023,0.266,0,0.397c0.462,0.689,0.979,1.34,1.548,1.944c0.873,0.873,1.905,1.588,2.818,2.381
	c0.176,0.21,0.262,0.481,0.238,0.754c0,0.675,0,1.35,0,2.024s0,1.032,0.953,1.389l0,0c0.317,0,0.675,0.238,0.913,0
	c0.214-0.224,0.328-0.524,0.317-0.833c0.039-0.369,0.039-0.742,0-1.111c-0.041-0.223-0.041-0.451,0-0.675c0,0,0,0,0.238,0
	c0.258,0.093,0.5,0.228,0.714,0.397c0.675,0.356,0.714,0.714,0.199,1.229c-0.449,0.51-0.613,1.21-0.437,1.865
	c0.238,0.477,0.556,0.953,1.151,0.992c0.521,0.049,0.99-0.316,1.072-0.833c0-0.238,0.278-0.396,0.357-0.635
	c0.097-0.229,0.097-0.486,0-0.715c-0.205-0.305-0.444-0.584-0.714-0.833c-0.042-0.115-0.042-0.242,0-0.357h0.278l1.627,0.437
	c0,0,0,0,0,0.238s0.238,1.071,0.396,1.587c0.159,0.517,0.596,0.953,1.31,0.477h0.277c0.516,0,0.596-0.477,0.238-0.913
	c-0.351-0.382-0.67-0.794-0.953-1.229c-0.071-0.151-0.071-0.326,0-0.477c0.525-0.483,1.235-0.716,1.945-0.635
	c0.43,0.02,0.773,0.363,0.794,0.794c0,0.476,0,0.912,0,1.389c0,0.476,0.317,0.913,0.873,0.833c0.695-0.09,1.384-0.223,2.063-0.396
	c0,0,0.238-0.238,0.238-0.357c0.022-0.898-0.688-1.645-1.586-1.667c0,0-0.001,0-0.001,0c-0.33,0.042-0.663,0.042-0.992,0
	c0,0-0.278-0.277-0.238-0.396s0.238-0.238,0.357-0.238c0.383-0.041,0.769-0.041,1.151,0c0.813,0.237,1.689,0.092,2.381-0.396
	l2.421-1.944c0.22-0.224,0.493-0.387,0.793-0.477c0.967-0.052,1.929,0.169,2.778,0.635c0.649,0.365,0.88,1.188,0.516,1.837
	c-0.073,0.13-0.167,0.247-0.278,0.346c-0.437,0.437-0.793,0.913-1.19,1.389l-1.627,1.945c-0.238,0.277-0.556,0.476-0.794,0.754
	l-1.627,1.667c-0.314,0.427-0.908,0.531-1.349,0.237c-0.512-0.384-1.148-0.567-1.786-0.516l-3.333,0.357l0,0
	c-1.286,0.444-2.683,0.444-3.969,0c-0.913,0-1.786-0.357-2.698-0.477c-0.37-0.046-0.707,0.217-0.753,0.586
	c0,0.003-0.001,0.007-0.001,0.01c-0.064,0.279-0.171,0.547-0.317,0.794c-0.415,0.779-0.252,1.741,0.397,2.341
	c0.16,0.155,0.349,0.276,0.556,0.357l3.175,0.556c1.151,0,2.341,0,3.492,0.277c1.865,0.436,3.824,0.182,5.516-0.714
	c0.976-0.507,1.917-1.077,2.818-1.707c0.695-0.556,1.346-1.166,1.945-1.825l1.19-1.15l1.944-2.184
	c0.754-0.793,1.468-1.666,2.302-2.42c0.902-0.688,1.556-1.648,1.865-2.738c0.061-0.375,0.14-0.745,0.238-1.111
	c0.226-0.541,0.412-1.099,0.556-1.667c0.159-1.489,0.239-2.986,0.238-4.484c0.005-0.702-0.3-1.37-0.833-1.825
	c-0.813-0.623-1.105-1.714-0.714-2.659c0.257-0.767,0.377-1.573,0.357-2.381c-0.031-0.698-0.137-1.39-0.317-2.064
	c-0.055-0.392-0.148-0.777-0.278-1.15c-0.357-0.754-0.754-1.508-1.151-2.262l-1.707-3.096l-1.667-2.857
	c-0.489-0.709-0.927-1.451-1.31-2.223c-0.459-0.881-0.691-1.863-0.674-2.857c0.04-0.833,0-1.468,0-2.143V375.267z M47.106,366.497
	v-0.198l-3.968,0.556c-0.379,0.055-0.751,0.147-1.111,0.277c-0.873,0.397-1.786,0.794-2.659,1.271
	c-0.545,0.227-1.054,0.534-1.508,0.912c-1.032,0.913-2.024,1.905-3.016,2.857c-0.238,0-0.437,0.437-0.675,0.675l-1.786,1.865
	c-0.615,0.522-1.173,1.107-1.667,1.746c-0.556,0.992-0.952,2.104-1.429,3.135c-0.019,0.251-0.019,0.504,0,0.755
	c-0.252,0.603-0.451,1.227-0.595,1.865c0,0.991,0,1.944,0,2.937v0.437c0.035,0.329,0.035,0.662,0,0.992
	c0,0.635-0.317,1.229-0.437,1.865c-0.119,0.635-0.278,1.548-0.437,2.302l-0.833,3.968l0,0c-0.614,1.208-0.475,2.662,0.357,3.73
	c0.828,1.127,1.865,2.084,3.056,2.818c0.878,0.501,1.81,0.9,2.778,1.19c0.657,0.244,1.334,0.43,2.024,0.556
	c0.944,0.178,1.899,0.297,2.857,0.356c1.27,0,2.58,0,3.969,0h3.214h5.715c0.263,0.041,0.531,0.041,0.793,0c0,0,0.516,0,0.516-0.476
	c0-0.477-0.317-0.477-0.556-0.516l-2.421-0.397l-3.254-0.675l-1.072-0.198c-0.635,0-1.27-0.437-1.944-0.595
	c-0.867-0.125-1.68-0.497-2.342-1.072c-0.509-0.384-0.975-0.823-1.389-1.31c-0.411-0.505-0.721-1.084-0.913-1.706
	c-0.17-0.572-0.099-1.188,0.198-1.707c0.319-0.681,1.039-1.08,1.786-0.992c0.199,0,0.357,0.278,0.556,0.278
	c0.873,0,1.27,0.873,1.826,1.35c0.556,0.476,1.429,1.587,2.58,1.746c0.313,0.036,0.621,0.116,0.913,0.238
	c0.833,0.277,1.587,0.635,2.421,0.833s2.024,0.437,3.016,0.635c0,0,0,0,0.198,0c0.656,0.117,1.328,0.117,1.984,0
	c0.802-0.357,1.55-0.825,2.222-1.389c0.757-0.649,1.354-1.464,1.747-2.381c0.475-0.992,0.885-2.013,1.23-3.057l0,0
	c0.278-0.476,0.516-1.031,0.833-1.508c0.379-0.598,0.818-1.156,1.31-1.667c0.731-0.622,1.514-1.18,2.341-1.666
	c1.27-0.794,2.58-1.588,3.969-2.302c0.78-0.427,1.589-0.798,2.421-1.111c0.933-0.396,1.886-0.741,2.857-1.032
	c0.968-0.354,1.858-0.893,2.62-1.587c0.063-0.18,0.063-0.376,0-0.556c-0.143-0.043-0.294-0.043-0.437,0
	c-1.038,0.038-2.076-0.042-3.096-0.238c-1.021-0.2-2.056-0.319-3.095-0.357c-2.262-0.277-4.564,0-6.866-0.635
	c-0.476,0-1.032,0-1.548,0c-0.516,0-0.873-0.238-0.873-0.952v-1.588c0-0.952,0-1.15,1.032-1.27c0.158-0.056,0.305-0.136,0.437-0.238
	l1.35-0.635c0.922-0.361,1.545-1.232,1.587-2.223c0.061-0.99-0.25-1.967-0.873-2.738c-0.403-0.602-1.009-1.038-1.707-1.23
	c-0.931-0.217-1.91,0.002-2.659,0.596c-0.396,0.238-0.714,0.595-1.111,0.833c-0.397,0.238-0.635,0.437-1.151,0
	c-1.042-0.61-2.115-1.166-3.215-1.667c-0.498-0.215-0.965-0.495-1.389-0.833c-0.827-0.603-1.8-0.973-2.818-1.071
	C48.345,366.302,47.72,366.368,47.106,366.497z M180.37,397.57c0.739-0.078,1.47-0.225,2.183-0.437
	c0.632-0.206,1.243-0.472,1.825-0.793c0.465-0.184,0.904-0.424,1.31-0.715c0.595-0.516,1.111-1.19,1.706-1.706
	c0.697-0.753,1.248-1.627,1.627-2.58c0.308-0.699,0.534-1.432,0.674-2.183c0-0.477,0.357-0.913,0.477-1.389
	c0.059-0.288,0.059-0.585,0-0.873c-0.238-0.754-0.595-1.469-0.833-2.223s-0.476-1.984-0.675-2.977
	c-0.222-0.858-0.369-1.734-0.437-2.619c0-2.381,0-4.762,0-7.104c-0.022-0.104-0.022-0.213,0-0.317c0.433-0.635,0.433-1.469,0-2.104
	c-0.226-0.474-0.567-0.883-0.992-1.19c-0.609-0.311-1.193-0.668-1.746-1.071l-1.508-1.032c-0.375-0.205-0.722-0.459-1.032-0.754
	c-0.62-0.568-1.369-0.978-2.183-1.19c-1.199-0.447-2.533-0.346-3.651,0.277c-0.967,0.59-1.729,1.463-2.183,2.501
	c-0.31,0.651-0.562,1.328-0.754,2.023c0,0.238,0,0.477,0,0.675c-0.42,0.57-0.805,1.167-1.151,1.786
	c-0.499,1.039-1.403,1.828-2.5,2.183c-1.022,0.357-2.092,0.558-3.175,0.595c-0.99,0.079-1.986,0.079-2.976,0
	c-1.605-0.238-3.237-0.238-4.842,0c-0.861,0.13-1.537,0.806-1.667,1.667c-0.08,0.845-0.08,1.695,0,2.54
	c0.086,0.65,0.508,1.208,1.111,1.468l3.175,0.953l1.072,0.277c0.835,0.338,1.699,0.604,2.58,0.794
	c0.788,0.059,1.469,0.569,1.746,1.31c0.381,0.898,0.687,1.828,0.913,2.778c0.269,1.14,0.481,2.292,0.635,3.452
	c0.222,1.193,0.871,2.266,1.826,3.017c0.847,0.688,1.734,1.324,2.659,1.904c0.913,0.596,1.865,1.23,2.817,1.786
	c0.679,0.469,1.412,0.855,2.183,1.15C179.174,397.552,179.772,397.593,180.37,397.57z M15.874,386.26
	c0.033,1.137,0.289,2.256,0.754,3.294c0.308,0.854,0.765,1.646,1.35,2.341c0.783,0.823,1.881,1.271,3.016,1.23
	c0.278,0,0.556,0,0.833-0.238l2.579-0.396c0.648-0.254,1.063-0.893,1.032-1.588c-0.136-0.518-0.549-0.915-1.072-1.031l-1.905-0.675
	c-1.035-0.39-1.829-1.241-2.143-2.302c0-0.357,0-0.794-0.278-1.111c-0.419-0.653-0.419-1.49,0-2.144
	c0.362-0.488,0.94-0.77,1.548-0.754h1.786c1.429,0,2.064-0.556,2.381-1.706c0.396-1.364-0.284-2.81-1.587-3.373
	c-0.432-0.046-0.858-0.14-1.27-0.278c-0.938-0.396-2.013-0.291-2.857,0.278c-0.718,0.39-1.331,0.947-1.786,1.627
	c-0.779,1.222-1.355,2.563-1.707,3.969C16.311,384.315,16.231,385.228,15.874,386.26z M55.043,409.396
	c0.199,1.032,0.477,2.223,0.595,3.413c0.119,1.19,0,2.104,1.032,2.818c0.377,0.39,0.839,0.688,1.349,0.873
	c0.646,0.079,1.299,0.079,1.944,0c0.157,0.03,0.319,0.03,0.477,0c0.558-0.209,1.003-0.641,1.23-1.191
	c0.397-0.565,0.515-1.281,0.317-1.944c-0.198-0.675-0.833-0.833-1.31-1.111c-0.476-0.277-0.873-0.356-1.27-0.635
	c-0.513-0.304-0.807-0.874-0.754-1.468c0.023-0.728,0.337-1.414,0.873-1.905c1.151-1.032,0.556-1.23,1.627,0l0,0l1.746,2.063
	c0.126,0.132,0.295,0.216,0.476,0.238c0,0,0.278,0,0.317-0.317c0.199-0.47,0.438-0.921,0.714-1.35
	c0.659-0.888,0.918-2.009,0.714-3.096c-0.056-0.344-0.191-0.67-0.397-0.952c-0.432-0.545-0.94-1.026-1.508-1.429
	c-0.905-0.687-2-1.074-3.135-1.111c-0.437,0-0.873,0.278-1.349,0.278s-1.31,0.675-1.826,1.19c-0.71,0.892-1.2,1.938-1.429,3.056
	c-0.168,0.85-0.261,1.713-0.278,2.579H55.043z M166.917,457.019L166.917,457.019c0.02,0.33,0.02,0.662,0,0.992
	c-0.064,0.728-0.372,1.413-0.873,1.944c-0.853,0.626-1.879,0.973-2.937,0.992c-0.749-0.011-1.488-0.158-2.183-0.437
	c-0.953-0.277-1.587,0-1.587,1.071c0.02,0.76,0.1,1.516,0.238,2.263c0.138,0.626,0.338,1.237,0.595,1.825
	c0,0.238,0.437,0.556,0.635,0.556c0.777,0.028,1.554-0.065,2.302-0.277c0.476,0,0.833-0.794,1.27-1.111
	c0.913-0.674,1.683-1.524,2.262-2.501c0.833-1.19,1.746-2.302,2.659-3.412c0.168-0.237,0.314-0.49,0.437-0.755
	c0.417-0.936,0.62-1.952,0.595-2.976c-0.039-0.29-0.039-0.584,0-0.873c0.277-0.919,0.277-1.899,0-2.818
	c-0.368-0.696-0.883-1.306-1.508-1.785c-0.476-0.357-0.952-0.715-1.468-1.032c-0.617-0.367-1.268-0.673-1.944-0.913
	c-0.385-0.139-0.806-0.139-1.191,0c-0.992,0.596-1.032,1.786-1.27,2.778c-0.062,0.567-0.062,1.14,0,1.706
	c0,0.397,0.198,0.517,0.476,0.636s1.389,0.516,2.104,0.714s1.071,0.873,1.31,1.469c0.176,0.687,0.256,1.395,0.238,2.104
	L166.917,457.019z M155.924,370.941c0.018-0.825-0.265-1.629-0.794-2.262c-0.873-1.111-2.341-0.873-3.571-1.19
	c-0.357,0-0.874,0.357-1.31,0.635c-0.437,0.278-1.786,1.31-2.698,1.905c-0.913,0.595-1.072,0.754-0.913,1.548
	c0.09,0.525,0.223,1.043,0.397,1.547c0.223,0.651,0.621,1.229,1.151,1.667c0.397,0.357,0.714,0.754,1.072,1.111
	c0.476,0.505,0.994,0.97,1.547,1.389c0.356,0.289,0.815,0.418,1.27,0.357c0.83-0.272,1.639-0.604,2.421-0.992
	c0.677-0.283,1.178-0.873,1.349-1.587c0.313-0.694,0.313-1.489,0-2.183c-0.081-0.272-0.081-0.562,0-0.834
	C155.686,371.696,155.844,371.339,155.924,370.941z M170.091,405.587c0.021-1.218-0.371-2.406-1.111-3.373
	c-0.435-0.679-1.018-1.249-1.707-1.667l-2.064-1.349c-1.03-0.735-2.187-1.273-3.413-1.588c-1.31-0.232-2.641-0.313-3.969-0.238
	c-1.27,0-1.746,0.556-1.865,1.548s-0.278,1.865-0.437,2.817c0,0,0,0,0,0.278c-0.298,0.793-0.298,1.667,0,2.46
	c0.191,0.212,0.439,0.364,0.714,0.437c0.278,0,0.317,0,0.476-0.396c0.416-0.758,1-1.409,1.707-1.905
	c0.353-0.203,0.673-0.458,0.953-0.754c0.608-0.8,1.435-1.406,2.381-1.746c0.998-0.378,2.099-0.378,3.096,0
	c0.686,0.259,1.271,0.732,1.667,1.35c0.439,0.635,0.811,1.313,1.111,2.023c0.199,0.777,0.28,1.58,0.238,2.382
	c0,0.952,0,1.944,0,2.896c0,0.953,0.437,0.754,0.714,0.437c0.538-0.498,0.981-1.09,1.31-1.746
	C170.029,406.84,170.096,406.214,170.091,405.587L170.091,405.587z M201.84,377.807l0.437,2.381
	c0.184,0.706,0.329,1.422,0.437,2.143c0,0.834,0,1.707,0,2.54c-0.038,0.968,0.337,1.905,1.032,2.58
	c0.536,0.428,1.25,0.562,1.905,0.356c1.186-0.568,1.963-1.742,2.024-3.056c0-0.873,0-1.785,0.317-2.658
	c-0.017-0.119-0.017-0.239,0-0.357c0-0.675,0-1.31,0-1.984s-0.238-0.317-0.396-0.357c-0.232-0.065-0.474,0.069-0.54,0.301
	c-0.013,0.044-0.018,0.09-0.016,0.136c-0.053,0.932-0.226,1.853-0.516,2.738c-0.269,0.779-0.733,1.477-1.349,2.024
	c0,0-0.635,0-0.794,0c-0.628-0.479-0.984-1.234-0.952-2.024c0.02-0.277,0.02-0.556,0-0.833c-0.036-0.668,0.031-1.337,0.198-1.984
	c0.397-0.754,0.714-1.706,1.746-1.944c0.261-0.06,0.533-0.06,0.794,0c0.337,0.137,0.682,0.256,1.032,0.357
	c0.357,0,0.476,0,0.397-0.517c-0.08-0.516-0.477-0.675-0.873-0.952c-0.397-0.262-0.913-0.262-1.31,0
	c-0.372,0.197-0.818,0.197-1.19,0c-0.645-0.489-0.928-1.322-0.714-2.104c0.041-0.223,0.041-0.451,0-0.675
	c-0.055-0.146-0.136-0.279-0.238-0.396c0,0-0.278,0-0.357,0.238c-0.222,0.33-0.42,0.675-0.595,1.031
	c-0.448,0.886-0.679,1.865-0.675,2.857L201.84,377.807z M172.274,366.774c-0.029-0.528-0.136-1.05-0.317-1.547
	c-0.341-0.739-0.753-1.444-1.23-2.104c-0.424-0.582-1.044-0.991-1.746-1.151c-0.318,0-0.714,0-1.072,0.278
	c-0.868,0.356-1.545,1.063-1.865,1.944c-0.212,0.471-0.372,0.963-0.476,1.469c-0.12,0.388-0.12,0.803,0,1.19
	c0.445,1.07,1.374,1.866,2.5,2.143c1.069,0.391,2.254,0.305,3.254-0.238c0.696-0.47,1.002-1.34,0.754-2.143L172.274,366.774z
	 M194.458,364.354c-0.795-0.017-1.549,0.354-2.024,0.991c-0.614,0.589-1.147,1.257-1.587,1.984c-0.473,0.972-0.35,2.128,0.318,2.977
	c0.49,0.769,1.351,1.222,2.262,1.19c0.238,0,0.516-0.238,0.754-0.238c1.105-0.065,2.149-0.531,2.937-1.31
	c0.393-0.471,0.393-1.155,0-1.627c-0.503-0.589-0.797-1.329-0.833-2.104c0.022-1.008-0.777-1.843-1.785-1.864
	C194.485,364.354,194.472,364.354,194.458,364.354z M121.596,435.986c0.238,0,0.397,0,0.516,0c0.833-0.477,1.786-0.556,2.5-1.389
	c0.413-0.454,0.627-1.055,0.595-1.667c-0.021-0.929-0.326-1.829-0.873-2.58c-0.396-0.396-0.674-0.912-1.23-1.15
	c-0.515-0.23-1.007-0.51-1.468-0.833c-0.595-0.438-1.111-0.318-1.31,0.317c-0.199,0.635-0.516,1.389-0.754,2.103
	c-0.207,0.576-0.341,1.177-0.396,1.786c0.05,0.666,0.197,1.321,0.437,1.944C119.89,435.43,120.763,435.748,121.596,435.986z
	 M176.163,403.166c-0.718-0.168-1.465,0.134-1.865,0.754c-0.859,0.88-1.164,2.161-0.793,3.334c0.253,0.688,0.71,1.284,1.31,1.706
	c0.648,0.415,1.358,0.724,2.104,0.913c1.375,0.374,2.792-0.438,3.166-1.813c0.05-0.186,0.08-0.376,0.088-0.568
	c0.044-0.866-0.177-1.725-0.635-2.461C178.873,403.804,177.556,403.076,176.163,403.166L176.163,403.166z M162.313,401.698
	c-0.25-0.04-0.504-0.04-0.754,0c-0.476,0-1.111,0.437-1.27,0.793c-0.579,1.306-0.412,2.821,0.437,3.969
	c0.468,0.687,1.06,1.279,1.746,1.746c0.612,0.363,1.373,0.363,1.984,0c0.752-0.369,1.355-0.985,1.707-1.746
	c0.599-1.232,0.36-2.708-0.595-3.69C164.671,401.987,163.498,401.601,162.313,401.698L162.313,401.698z M54.051,352.091
	L54.051,352.091c-0.06,0.899-0.06,1.801,0,2.699c0,0.912,0.397,1.825,0.556,2.738c0.159,0.912,0,1.27,0.317,1.904
	c0.078,0.264,0.266,0.481,0.516,0.596c0.357,0,0.357-0.238,0.437-0.477c0.019-0.158,0.019-0.317,0-0.476
	c0.233-2.345,0.126-4.711-0.317-7.024l-0.595-2.54c0-0.317-0.238-0.516-0.516-0.396c-0.194,0.114-0.336,0.299-0.397,0.516
	C54.012,350.464,54.051,351.258,54.051,352.091z M108.937,375.466c-0.238-0.477-0.397-1.031-0.675-1.508
	c-0.236-0.543-0.868-0.791-1.41-0.555c-0.093,0.04-0.179,0.093-0.257,0.157c-0.512,0.271-0.959,0.65-1.31,1.111
	c-0.36,0.494-0.542,1.096-0.516,1.707c0.253,0.854,1.055,1.426,1.944,1.389l0.794-0.317
	C108.319,377.109,108.871,376.343,108.937,375.466z M164.496,428.446c0.357,0,0.913,0,1.23-0.517
	c0.566-0.549,0.581-1.453,0.032-2.02c-0.133-0.138-0.292-0.247-0.468-0.321c-0.579-0.336-1.175-0.641-1.786-0.913
	c-0.361-0.115-0.75-0.115-1.111,0c0,0-0.357,0.556-0.357,0.873c0.013,0.636,0.206,1.255,0.556,1.786
	c0.449,0.643,1.163,1.051,1.945,1.111H164.496z M162.71,411.976L162.71,411.976c0.383,0.02,0.768,0.02,1.151,0
	c0.21,0.029,0.424,0.029,0.635,0c-0.123-0.192-0.255-0.377-0.396-0.556c0,0,0,0-0.238,0l-1.151-1.032l-1.945-1.111
	c-0.396,0-0.913-0.237-1.19-0.555c-0.278-0.318-0.674,0-0.833,0c-0.1,0.269-0.1,0.564,0,0.833c0,0,0,0.317,0.278,0.437
	c0.417,0.497,0.897,0.938,1.429,1.31C161.177,411.603,161.935,411.83,162.71,411.976z M158.741,422.612
	c-0.674,0-1.23,0.278-1.389,0.833c-0.06,0.464,0.023,0.935,0.238,1.35c0.32,0.43,0.665,0.84,1.032,1.23
	c0.278,0.357,0.476,0.357,0.754,0c0.38-0.414,0.792-0.799,1.23-1.151c0.318-0.237,0.833-0.317,0.794-0.793
	c-0.04-0.477-0.556-0.517-0.913-0.715L158.741,422.612z M170.647,428.089c0.083-0.465-0.187-0.921-0.635-1.071l-1.111-0.477
	c-0.873-0.357-1.032-0.277-1.151,0.675c0.022,0.145,0.022,0.292,0,0.437c-0.556,0.715-0.516,1.071,0,1.667
	c0.487,0.525,1.261,0.67,1.905,0.357C170.295,429.419,170.697,428.777,170.647,428.089L170.647,428.089z M103.5,375.744v-0.913
	c0-0.357-0.516-0.754-0.754-0.596l-1.667,1.072c-0.992,0.714-1.111,1.706-0.238,2.381c0.684,0.549,1.683,0.44,2.232-0.242
	c0.04-0.05,0.076-0.102,0.11-0.155C103.507,376.845,103.623,376.281,103.5,375.744z M109.968,374.235L109.968,374.235
	c-0.02,0.384-0.02,0.768,0,1.151c0,0.238,0,0.595,0.238,0.595c0.243,0.096,0.512,0.096,0.754,0c0.415-0.336,0.813-0.693,1.19-1.071
	c0.542-0.41,0.649-1.182,0.239-1.724c-0.125-0.164-0.289-0.295-0.477-0.38c-0.278,0-0.674,0-0.952-0.317s-0.437-0.396-0.635,0
	c-0.161,0.21-0.27,0.455-0.317,0.715C109.965,373.546,109.952,373.891,109.968,374.235z M174.139,427.096c-0.317,0-0.674,0-0.873,0
	c-0.652,0.523-1.135,1.228-1.389,2.024c-0.132,0.301,0.006,0.652,0.307,0.783c0.078,0.034,0.163,0.052,0.248,0.05
	c0.455,0.123,0.935,0.123,1.389,0c0.687-0.445,1.193-1.12,1.429-1.905C175.489,427.454,175.052,427.136,174.139,427.096z
	 M192.672,396.102c1.19,0,1.548-0.556,1.151-1.23c-0.356-0.567-0.783-1.088-1.27-1.548c-0.261-0.134-0.572-0.134-0.833,0
	c-0.35,0.297-0.682,0.614-0.992,0.952c-0.278,0.278-0.357,0.913,0,1.032L192.672,396.102z M183.941,400.071L183.941,400.071v-0.715
	c0-0.754-0.396-1.032-1.071-0.714c-0.31,0.148-0.628,0.281-0.953,0.396c-0.674,0-0.833,0.477-0.476,1.032
	c0.275,0.487,0.608,0.94,0.992,1.349c0.293,0.227,0.665,0.327,1.032,0.278c0.346-0.059,0.579-0.387,0.52-0.732
	c-0.001-0.007-0.002-0.015-0.004-0.021c-0.035-0.304-0.048-0.608-0.04-0.913V400.071z M96.634,377.927l1.905-0.675
	c0.357,0,0.516-0.357,0.318-0.715c-0.195-0.403-0.464-0.767-0.794-1.071c-0.357-0.198-0.833-0.556-1.31,0
	c-0.437,0.326-0.848,0.684-1.23,1.071c-0.12,0.224-0.12,0.491,0,0.715c0.356,0.235,0.728,0.447,1.111,0.635V377.927z
	 M123.699,409.675c-0.278-0.754-0.278-1.508-0.953-1.944c-0.634-0.283-1.336-0.38-2.024-0.278c-0.134,0.141-0.218,0.322-0.238,0.516
	c0.049,0.236,0.158,0.455,0.317,0.636c0.476,0.556,0.833,1.27,1.548,1.548c0.714,0.277,0.635,0.317,0.833,0.237
	c0.199-0.079,0.357-0.595,0.516-0.833V409.675z M115.762,372.727c-0.021-0.131-0.021-0.266,0-0.396
	c-0.14-0.686-0.618-1.253-1.27-1.509c-0.357,0-1.111,0.556-1.071,0.953c0.04,0.396,0.198,1.27,0.278,1.904
	c-0.002,0.373,0.298,0.677,0.671,0.679c0.083,0.001,0.165-0.015,0.242-0.043c0.693-0.267,1.118-0.969,1.032-1.707L115.762,372.727z
	 M116.635,370.148c0.063,0.429,0.156,0.854,0.278,1.27c0.169,0.269,0.419,0.478,0.714,0.596c0.317,0,0.516,0,0.714-0.357
	c0.286-0.371,0.605-0.717,0.952-1.032c0.312-0.188,0.432-0.582,0.278-0.912c-0.113-0.354-0.466-0.573-0.833-0.517h-1.35
	c-0.674,0.159-0.873,0.159-0.873,0.834L116.635,370.148z M184.934,398.245c0.059,0.78,0.397,1.513,0.953,2.063
	c0.183,0.198,0.446,0.301,0.714,0.278c0.334-0.094,0.645-0.256,0.913-0.477c0.195-0.204,0.308-0.472,0.317-0.754
	c0,0,0-0.437-0.396-0.556l-0.913-0.635c-0.372-0.135-0.758-0.228-1.151-0.278c0,0-0.437,0.159-0.556,0.238L184.934,398.245z
	 M87.308,375.744c0,0,0,0.356,0,0.437l1.23,1.031c0.224,0.241,0.6,0.256,0.841,0.032c0.011-0.011,0.021-0.021,0.032-0.032
	c0.287-0.331,0.539-0.689,0.754-1.071c0,0,0-0.317,0-0.396c-0.384-0.327-0.795-0.619-1.23-0.873c-0.163-0.079-0.353-0.079-0.516,0
	c-0.275,0.134-0.529,0.308-0.754,0.516L87.308,375.744z M190.49,397.134l-0.357-1.349c0.001-0.264-0.21-0.478-0.474-0.479
	c-0.137,0-0.269,0.059-0.359,0.162c-0.403,0.262-0.764,0.583-1.072,0.952c-0.138,0.303-0.138,0.649,0,0.952
	c0.292,0.494,0.866,0.749,1.429,0.635C190.49,398.166,190.49,398.087,190.49,397.134z M199.419,390.07
	c-0.238-0.437-0.437-0.834-0.675-1.19c-0.238-0.357-0.437-0.437-0.714,0c-0.277,0.454-0.582,0.892-0.913,1.31
	c-0.357,0.396-0.317,0.833,0.238,1.389c0.555,0.556,0.714,0,0.992,0c0.247-0.26,0.472-0.538,0.675-0.833L199.419,390.07z
	 M142.272,410.508c0.038-0.17,0.038-0.346,0-0.516c-0.169-0.296-0.399-0.553-0.675-0.754c0,0-0.396,0-0.516,0.317
	c-0.258,0.454-0.564,0.88-0.913,1.27c-0.317,0.245-0.402,0.688-0.198,1.032c0,0,0.516,0.238,0.794,0
	C141.796,411.738,142.391,411.738,142.272,410.508z M84.093,374.196c-0.675,0-0.913,0.277-0.714,0.873
	c0.302,0.512,0.807,0.872,1.389,0.992c0.793,0,1.19-0.596,1.627-1.111s0-0.754-0.476-0.754H84.093z M196.006,392.491
	c0-0.517,0-1.071-0.238-1.588c-0.238-0.516,0-0.556-0.397-0.635s-0.477,0-0.714,0c-0.238,0-0.238,0.238-0.357,0.277
	c-0.357,0.169-0.51,0.594-0.342,0.951c0.027,0.058,0.062,0.111,0.104,0.16c0.238,0.317,0.437,0.636,0.635,0.953
	c0.095,0.337,0.445,0.534,0.783,0.439c0.003-0.001,0.007-0.002,0.011-0.003C195.966,393.166,196.006,392.887,196.006,392.491z
	 M94.054,376.1L94.054,376.1c0.04-0.223,0.04-0.451,0-0.675c-0.109-0.222-0.257-0.424-0.437-0.595c0,0-0.278,0-0.397,0
	c-0.368,0.201-0.714,0.44-1.032,0.714c-0.155,0.147-0.253,0.344-0.278,0.556c0,0.517,0.357,0.556,0.635,0.675
	c0.332,0.207,0.721,0.304,1.111,0.278c0.477,0,0.357-0.556,0.357-0.913L94.054,376.1z M204.221,381.26
	c-0.011,0.186-0.011,0.371,0,0.556c0.09,0.125,0.214,0.222,0.357,0.278c0,0,0.476,0,0.516,0c0.238-0.873,0.437-1.786,0.595-2.659
	c0,0-0.198-0.317-0.317-0.396c-0.123-0.071-0.274-0.071-0.397,0C204.737,379.633,204.499,380.386,204.221,381.26z"/>
<path d="M101.118,421.302c0,1.429,0,2.857-0.317,4.286s-0.317,2.579-0.556,3.969c-0.243,1.218-0.548,2.423-0.913,3.611
	c-0.302,0.881-0.688,1.731-1.151,2.54c-0.678,1.17-1.55,2.217-2.58,3.095l-1.587,1.111c-0.288,0.06-0.585,0.06-0.873,0
	c-1.151,0.238-2.341,0.397-3.453,0.715c-1.113,0.288-2.268,0.383-3.413,0.277c-0.802-0.074-1.598-0.207-2.381-0.396
	c-0.873,0-1.747-0.437-2.58-0.715c-0.548-0.225-1.079-0.49-1.587-0.794l-0.794-0.437c-0.913-0.674-1.826-1.349-2.699-2.063
	c-0.439-0.379-0.851-0.79-1.23-1.229c-0.364-0.383-0.696-0.794-0.992-1.23c-0.372-0.579-0.69-1.189-0.953-1.826
	c-0.283-0.795-0.47-1.62-0.555-2.46c0-1.271,0-2.58,0-3.969s0-2.262,0-3.373c0.084-0.882,0.512-1.693,1.19-2.263
	c0.556-0.675,1.19-1.229,1.825-1.865c0.635-0.635,1.032-0.437,1.508,0s0.278,1.31,0,1.945c-0.198,0.296-0.358,0.616-0.476,0.952
	c-0.183,0.701-0.29,1.419-0.318,2.144c0,2.103,0,4.206,0,6.27c0.143,0.68,0.384,1.335,0.714,1.945
	c0.162,0.317,0.348,0.623,0.556,0.912c0.195,0.324,0.436,0.618,0.714,0.873c0.653,0.735,1.45,1.33,2.341,1.746
	c1.005,0.445,1.941,1.034,2.778,1.746c1.09,0.647,2.344,0.965,3.611,0.913c0.357,0,0.675,0,0.992,0c0.291,0.019,0.582,0.019,0.873,0
	c0.894-0.058,1.782-0.177,2.659-0.357c0.735-0.274,1.43-0.648,2.064-1.111c0.276-0.179,0.53-0.393,0.754-0.635
	c1.03-1.166,1.837-2.511,2.381-3.969c0.448-1.124,0.819-2.277,1.111-3.452c0.198-1.151,0.516-2.262,0.794-3.373l0,0
	c0-1.111,0.278-2.183,0.437-3.294c0.198-0.782,0.198-1.601,0-2.382l-0.477-1.27c0-0.516,0-0.833,0.595-0.913
	c0.596-0.079,1.27,0,1.587,1.111c0.503,1.077,0.695,2.272,0.556,3.453L101.118,421.302z"/>
<path d="M95.84,406.579c-0.12-1.103,0.072-2.216,0.555-3.215c0.326-1.017,1.205-1.757,2.262-1.904c0.278,0,0.516-0.278,0.794-0.317
	c0.704-0.036,1.397,0.19,1.944,0.635c0.601,0.248,1.083,0.717,1.35,1.31c0.405,0.697,0.674,1.465,0.793,2.262
	c0,0.397,0,0.834,0,1.23c-0.041,1.442-0.861,2.75-2.143,3.413c-0.677,0.336-1.38,0.614-2.103,0.833
	c-0.556,0.238-0.992,0-1.429-0.396C96.354,409.797,95.504,408.181,95.84,406.579z M101.674,405.785
	c-0.073-1.144-0.638-2.2-1.548-2.896c-1.079-0.537-2.389-0.097-2.926,0.982c-0.107,0.215-0.178,0.446-0.209,0.685
	c-0.06,0.898-0.06,1.8,0,2.698c0.074,0.844,0.743,1.514,1.587,1.587c0.471,0.028,0.94-0.082,1.349-0.317
	C100.88,407.968,101.912,406.857,101.674,405.785z"/>
<path d="M76.95,397.968l-1.27-0.834c-0.099-0.058-0.18-0.14-0.238-0.237c-0.198-0.238-0.556-0.517-0.516-0.715
	c0.04-0.198,0.397-0.477,0.635-0.714c0.238-0.238,0.595-0.715,1.111-0.517c0.293,0.125,0.562,0.3,0.794,0.517
	c0.376,0.295,0.734,0.612,1.071,0.952c0,0,0,0.437,0,0.477C78.16,397.437,77.594,397.82,76.95,397.968z"/>
<path d="M123.501,335.344c1.112-0.024,2.17,0.475,2.857,1.35c0.277,0.304,0.277,0.769,0,1.071c-0.489,0.568-1.02,1.099-1.588,1.588
	c-0.489,0.384-1.177,0.384-1.667,0c-0.52-0.332-0.954-0.78-1.27-1.31c-0.595-0.794,0-1.746,0.635-2.144
	C122.778,335.656,123.127,335.469,123.501,335.344z"/>
<path d="M83.577,338.558l-1.984-0.952c-0.279-0.145-0.523-0.348-0.714-0.596c-0.34-0.537-0.18-1.247,0.357-1.587
	c0.337-0.298,0.655-0.616,0.953-0.953c0.754-0.794,1.349-0.794,2.063,0c0.399,0.4,0.758,0.839,1.072,1.31
	c0.134,0.262,0.134,0.572,0,0.834c-0.365,0.587-0.776,1.145-1.23,1.666c0,0-0.397,0-0.556,0L83.577,338.558z"/>
<path d="M133.978,466.425c-1.389,0-2.738,0-3.968-0.238c-0.78-0.146-1.549-0.346-2.302-0.595c-0.397,0-0.794,0-1.19-0.238
	c-1.072-0.357-2.143-0.675-3.135-1.071c-0.992-0.397-2.104-0.992-3.175-1.508c-0.495-0.185-0.972-0.41-1.429-0.675
	c-1.348-0.711-2.59-1.605-3.691-2.659c-0.804-0.896-1.413-1.95-1.786-3.096c-0.196-0.602-0.276-1.233-0.238-1.865
	c0.015-0.343,0.156-0.668,0.397-0.913c0.303-0.137,0.65-0.137,0.953,0c0.522,0.215,1.016,0.495,1.468,0.834
	c0.474,0.368,0.913,0.78,1.31,1.23c0.967,1.04,2.045,1.972,3.214,2.777c0.282,0.13,0.574,0.236,0.873,0.317
	c0.504,0.091,0.997,0.237,1.468,0.437c0.342,0.188,0.662,0.415,0.953,0.675c0.675,0.596,1.389,1.071,2.104,1.588
	c0.714,0.516,1.547,0.675,2.302,1.15c0.345,0.126,0.706,0.206,1.071,0.238l2.977,0.596l2.937,0.675c0.873,0,1.786,0,2.659,0.317
	c0.606,0.075,1.205,0.208,1.786,0.396c0,0,0.476,0.357,0.437,0.396c-0.04,0.04-0.317,0.556-0.556,0.596
	c-0.796,0.19-1.605,0.322-2.421,0.396C135.883,466.345,134.93,466.385,133.978,466.425z"/>
<path d="M141.558,435.39c0.449-0.039,0.9-0.039,1.349,0c0.758,0.128,1.485,0.397,2.143,0.794c0.833,0.477,1.23,1.271,1.865,1.905
	c0.635,0.635,0,0.317,0,0.476c0.469,1.272,0.724,2.613,0.754,3.969c0.016,0.82-0.282,1.615-0.833,2.223
	c-0.941,0.962-2.276,1.432-3.611,1.27c-1.405-0.082-2.712-0.743-3.611-1.825c-0.357-0.516-0.477-1.15-0.794-1.667
	c-0.353-0.927-0.554-1.905-0.595-2.896c-0.213-0.625-0.294-1.287-0.238-1.945c0.109-0.848,0.608-1.597,1.35-2.023
	C139.97,435.232,140.764,435.47,141.558,435.39z M143.066,441.978L143.066,441.978c-1.084-0.082-1.927-0.977-1.945-2.063
	c-0.02-0.104-0.02-0.212,0-0.317c0.357-0.754,0.714-1.429,1.746-1.389c0.238,0,0.556,0,0.317-0.635
	c-0.208-0.521-0.709-0.865-1.27-0.874c-0.702,0.03-1.361,0.346-1.826,0.874c-0.424,0.323-0.685,0.816-0.714,1.349
	c0.029,0.542,0.136,1.076,0.317,1.588c0.296,0.652,0.745,1.225,1.31,1.666c0.625,0.523,1.356,0.902,2.143,1.111
	c0.606,0.12,1.236-0.008,1.746-0.356c0.722-0.26,1.096-1.056,0.836-1.777c-0.001-0.003-0.002-0.006-0.003-0.009
	c-0.023-0.235-0.091-0.464-0.198-0.675c-0.15-0.155-0.309-0.301-0.477-0.437c0,0-0.396,0.357-0.437,0.556
	C144.335,441.899,144.217,441.978,143.066,441.978z"/>
<path d="M130.406,368.679c-0.089,0.733-0.556,1.365-1.23,1.667c-0.556,0-0.873-0.317-1.27-0.556
	c-0.283-0.175-0.516-0.422-0.674-0.715c-0.138-0.302-0.138-0.649,0-0.952c0.507-0.624,1.376-0.821,2.103-0.477
	c0.399,0.084,0.736,0.348,0.913,0.715C130.248,368.362,130.366,368.639,130.406,368.679z"/>
<path d="M40.32,380.069c-1.144,0.07-2.278-0.252-3.214-0.913c-0.742-0.426-1.327-1.08-1.667-1.865c-0.516-1.19,0-2.063,0.556-3.056
	c0.187-0.392,0.413-0.765,0.675-1.111c0.573-0.799,1.302-1.474,2.143-1.983c0.914-0.558,2.063-0.558,2.976,0
	c0.899,0.462,1.727,1.05,2.46,1.746c0.396,0.456,0.705,0.98,0.913,1.548c0.161,0.41,0.28,0.835,0.357,1.27
	c0.106,1.243-0.452,2.45-1.468,3.175C43.033,379.788,41.676,380.22,40.32,380.069z M36.59,375.862c-0.041,0.343-0.041,0.689,0,1.032
	c0.806,1.393,2.374,2.161,3.969,1.944c0.375-0.056,0.746-0.136,1.111-0.238c0.704-0.369,1.368-0.808,1.984-1.31
	c0.323-0.309,0.568-0.689,0.714-1.11c0.172-0.891-0.128-1.806-0.793-2.421c-0.427-0.58-1.003-1.032-1.667-1.31
	c-0.517-0.144-1.021-0.33-1.508-0.556c-0.675-0.477-1.072,0-1.508,0.277c-0.402,0.216-0.744,0.529-0.992,0.913
	C37.141,373.821,36.676,374.808,36.59,375.862z"/>
<path d="M62.703,372.37c-0.141,0.492-0.535,0.87-1.032,0.992c-0.238,0-0.635,0-0.913-0.396c-0.229-0.231-0.417-0.5-0.556-0.794
	c-0.169-0.749,0.236-1.509,0.953-1.786c0.123-0.07,0.274-0.07,0.396,0c0.402,0.493,0.773,1.01,1.111,1.548
	C62.663,371.933,62.703,372.212,62.703,372.37z"/>
<path d="M151.241,374.077c-0.333-0.127-0.651-0.286-0.952-0.477l-1.429-1.19c-0.406-0.368-0.436-0.996-0.067-1.401
	c0.021-0.023,0.043-0.046,0.067-0.067c0.298-0.311,0.616-0.603,0.952-0.873c0.754-0.516,1.35,0,1.905,0.437l1.31,1.032
	c0.396,0.396,0.595,0.714,0,1.15s-0.794,0.715-1.23,1.032L151.241,374.077z"/>
<path d="M168.742,363.799l0.952,0.635c0.239,0.122,0.434,0.316,0.556,0.556c0,0.277,0,0.714,0,0.873
	c-0.339,0.334-0.727,0.615-1.151,0.833c-0.149,0.078-0.327,0.078-0.476,0c-0.389-0.323-0.76-0.667-1.111-1.031
	c0,0-0.198-0.556,0-0.675c0.301-0.42,0.647-0.806,1.032-1.151L168.742,363.799z"/>
<path d="M195.45,367.211c0.032,0.547-0.338,1.035-0.873,1.151c-0.317,0-0.833,0-1.23,0c-0.397,0-0.477-0.317-0.714-0.396
	c-0.238-0.08-0.516-0.397-0.397-0.675c0.102-0.26,0.282-0.482,0.516-0.635c0.436-0.207,0.887-0.379,1.349-0.517
	c0.557-0.127,1.115,0.205,1.27,0.754C195.371,366.893,195.411,367.052,195.45,367.211z"/>
<path d="M123.858,432.136c0,0,0,0.238-0.198,0.317c-0.382,0.475-0.808,0.913-1.27,1.31c-0.155,0.052-0.322,0.052-0.476,0
	c-0.439-0.308-0.828-0.683-1.151-1.111c-0.278-0.356,0-0.714,0.357-0.952c0.357-0.238,0.794-0.477,1.23-0.675
	c0.604-0.197,1.254,0.133,1.451,0.737C123.841,431.883,123.86,432.01,123.858,432.136z"/>
<path d="M176.6,408.286c-0.984,0.065-1.835-0.679-1.901-1.663c-0.002-0.041-0.004-0.082-0.004-0.123c0-1.111,1.35-2.183,2.183-2.183
	c0.833,0,1.786,1.429,1.826,2.222c-0.082,1.05-0.998,1.833-2.047,1.752C176.637,408.289,176.619,408.288,176.6,408.286z"/>
<path d="M163.543,406.777c-0.517,0.06-1.037-0.066-1.468-0.356c-1.032-0.794-1.35-2.064,0-2.938c0.859-0.642,2.038-0.642,2.897,0
	c0.211,0.207,0.362,0.468,0.437,0.755c0,0.714,0.278,1.508-0.318,2.103c-0.157,0.178-0.365,0.303-0.595,0.357L163.543,406.777z"/>
<path d="M99.689,407.015c-0.61-0.211-1.102-0.673-1.349-1.27c-0.198-0.397,0-0.754,0.317-1.071c0.317-0.318,1.032-0.794,1.786,0
	c0.198,0,0.476,0.396,0.674,0.635c0.199,0.238,0.238,0.437,0,0.635L99.689,407.015z"/>
<path d="M43.416,375.466c-0.197,0.989-0.96,1.768-1.945,1.984c-0.595,0-1.746-1.35-1.826-2.024c-0.079-0.674,1.23-1.785,1.984-1.785
	C42.576,373.763,43.313,374.517,43.416,375.466z"/>
</svg>
